<?xml version="1.0" standalone="no"?>
<!DOCTYPE svg PUBLIC "-//W3C//DTD SVG 20010904//EN"
 "http://www.w3.org/TR/2001/REC-SVG-20010904/DTD/svg10.dtd">
<svg version="1.0" xmlns="http://www.w3.org/2000/svg"
 width="114.000000pt" height="123.916577pt" viewBox="0 0 114.000000 123.916577"
 preserveAspectRatio="xMidYMid meet">
<metadata>
Created by potrace 1.12, written by Peter Selinger 2001-2015
</metadata>
<g transform="translate(-19.000000,140.916577) scale(0.100000,-0.100000)"
fill="#000000" stroke="none">
<path d="M665 1397 c-149 -50 -246 -166 -261 -314 -11 -102 41 -234 118 -298
17 -14 29 -27 27 -29 -2 -2 -33 -18 -68 -37 -168 -88 -291 -289 -291 -476 l0
-73 570 0 570 0 0 68 c0 191 -121 392 -291 481 -35 19 -65 35 -66 36 -2 1 18
23 43 50 70 72 97 141 98 245 0 103 -27 172 -98 248 -85 91 -242 135 -351 99z
m195 -108 c257 -116 180 -493 -100 -492 -116 0 -210 67 -246 176 -54 163 73
337 246 337 34 0 72 -8 100 -21z m104 -642 c100 -50 173 -122 220 -219 20 -40
39 -92 42 -115 l7 -43 -473 0 -473 0 7 43 c16 109 117 252 221 312 92 55 139
66 261 63 105 -3 114 -5 188 -41z"/>
</g>
</svg>
