<?xml version="1.0" encoding="UTF-8"?>
<svg version="1.1" xmlns="http://www.w3.org/2000/svg" width="506" height="327">
<path d="M0 0 C141.24 0 282.48 0 428 0 C428 14.52 428 29.04 428 44 C286.76 44 145.52 44 0 44 C0 29.48 0 14.96 0 0 Z " fill="#000000" transform="translate(36,171)"/>
<path d="M0 0 C141.24 0 282.48 0 428 0 C428 14.52 428 29.04 428 44 C286.76 44 145.52 44 0 44 C0 29.48 0 14.96 0 0 Z " fill="#000000" transform="translate(36,43)"/>
<path d="M0 0 C141.24 0 282.48 0 428 0 C428 9.24 428 18.48 428 28 C286.76 28 145.52 28 0 28 C0 18.76 0 9.52 0 0 Z " fill="#000000" transform="translate(36,299)"/>
</svg>
