<?xml version="1.0" encoding="UTF-8"?>
<svg version="1.1" xmlns="http://www.w3.org/2000/svg" width="1246" height="2000">
<path d="M0 0 C2.89640118 -0.08120751 5.79050912 -0.14059421 8.6875 -0.1875 C9.50412109 -0.21263672 10.32074219 -0.23777344 11.16210938 -0.26367188 C11.95810547 -0.27333984 12.75410156 -0.28300781 13.57421875 -0.29296875 C14.66609497 -0.31653442 14.66609497 -0.31653442 15.7800293 -0.34057617 C19.80225742 0.27649281 22.29248772 2.09204546 24.76660156 5.26708984 C25.3025293 6.15605957 25.83845703 7.0450293 26.390625 7.9609375 C27.00905273 8.97526855 27.62748047 9.98959961 28.26464844 11.03466797 C28.91981445 12.13697754 29.57498047 13.23928711 30.25 14.375 C30.95003713 15.53450587 31.6509004 16.69351333 32.35253906 17.85205078 C38.66971469 28.31704521 44.83595106 38.87401433 50.99261475 49.43399048 C54.61688902 55.65010449 58.28103992 61.8399888 62 68 C69.7980425 80.9220754 77.38559262 93.96921445 85 107 C89.68517595 99.35102127 94.06341958 91.55158997 98.375 83.6875 C99.07443372 82.41501493 99.7740636 81.14263766 100.47387695 79.87036133 C101.55979174 77.89597501 102.64551646 75.92148601 103.73048401 73.94657898 C106.19505826 69.46062462 108.66717425 64.97890645 111.14453125 60.5 C112.15752149 58.66788948 113.17045991 56.83575031 114.18338013 55.00360107 C114.85291946 53.79263898 115.5225769 52.58174219 116.19235229 51.37091064 C119.69023995 45.0449958 123.16712354 38.7093237 126.578125 32.3359375 C141.44854144 4.55145856 141.44854144 4.55145856 146 0 C149.07451355 -0.27858031 152.1643663 -0.23182248 155.25 -0.25 C156.10980469 -0.270625 156.96960938 -0.29125 157.85546875 -0.3125 C159.11037109 -0.32023437 159.11037109 -0.32023437 160.390625 -0.328125 C161.15407227 -0.3374707 161.91751953 -0.34681641 162.70410156 -0.35644531 C165.80823527 0.12548102 167.52124036 1.06084466 170 3 C170.62361908 5.82830811 170.62361908 5.82830811 170.62145996 9.33886719 C170.62784878 9.98451504 170.6342376 10.63016289 170.64082003 11.29537582 C170.65610539 13.46316913 170.63558908 15.62914482 170.61523438 17.796875 C170.61873457 19.34908658 170.624392 20.90129458 170.63204956 22.45349121 C170.64632214 26.672626 170.62921234 30.89111101 170.60576439 35.11018372 C170.58568958 39.52104477 170.59153318 43.93187794 170.59387207 48.34277344 C170.59381846 55.75076036 170.57403974 63.15849254 170.54199219 70.56640625 C170.50509772 79.13647513 170.49631622 87.70621019 170.5032897 96.27634811 C170.50959042 104.51342029 170.49884843 112.75037773 170.47932434 120.98742676 C170.47113999 124.49615104 170.46844269 128.00481677 170.47001648 131.5135498 C170.4708941 135.64387695 170.45671273 139.77388582 170.43078995 143.90412903 C170.42361504 145.42188474 170.42155088 146.93967428 170.42490768 148.45744324 C170.42861007 150.52568744 170.41392018 152.59299637 170.39440918 154.66113281 C170.38881611 156.39885956 170.38881611 156.39885956 170.38311005 158.17169189 C170 161 170 161 168.66284943 162.8336792 C164.5412988 165.72453038 159.93522667 165.21941032 155.125 165.25 C154.32191406 165.270625 153.51882812 165.29125 152.69140625 165.3125 C147.96812269 165.34362543 144.82607197 165.09086599 141 162 C139.8215273 159.64305461 139.86274132 158.21241172 139.84178162 155.58346558 C139.82709839 154.19100616 139.82709839 154.19100616 139.81211853 152.77041626 C139.80636307 151.74902557 139.8006076 150.72763489 139.79467773 149.67529297 C139.78477814 148.60210815 139.77487854 147.52892334 139.76467896 146.42321777 C139.73299842 142.86289707 139.70828062 139.30256301 139.68359375 135.7421875 C139.66302988 133.27881516 139.64203357 130.8154464 139.62062073 128.3520813 C139.56534147 121.85836679 139.51595804 115.36462012 139.46777344 108.87084961 C139.4176011 102.24850594 139.36189279 95.62620914 139.30664062 89.00390625 C139.19898747 76.00264445 139.09737057 63.00134267 139 50 C138.08168648 51.73963013 138.08168648 51.73963013 137.14482117 53.5144043 C136.33054785 55.05519285 135.51624042 56.59596338 134.7019043 58.13671875 C134.29971428 58.89883667 133.89752426 59.66095459 133.48314667 60.44616699 C130.35864381 66.35537346 127.13029059 72.19699955 123.8125 78 C122.69225092 79.97109427 121.57247613 81.94245816 120.453125 83.9140625 C119.88529297 84.9134082 119.31746094 85.91275391 118.73242188 86.94238281 C115.82370091 92.07609496 112.94347384 97.22568246 110.0625 102.375 C109.48661133 103.40173828 108.91072266 104.42847656 108.31738281 105.48632812 C105.27239185 110.91884956 102.24761063 116.36148941 99.25 121.8203125 C98.32368774 123.49794678 98.32368774 123.49794678 97.37866211 125.20947266 C96.2064652 127.33326213 95.04016915 129.46032427 93.88110352 131.59130859 C86.35272189 145.1932248 86.35272189 145.1932248 82 149 C79.46289062 149.43310547 79.46289062 149.43310547 77 149 C75.48266602 147.72900391 75.48266602 147.72900391 74.19140625 145.8515625 C73.68625488 145.11711914 73.18110352 144.38267578 72.66064453 143.62597656 C69.28395877 138.28642466 66.09391245 132.8460206 62.9375 127.375 C62.18025147 126.07128684 61.422431 124.76790574 60.6640625 123.46484375 C59.14528362 120.85481746 57.62841389 118.2436971 56.11279297 115.63183594 C53.26972342 110.73805651 50.38696406 105.86797898 47.5 101 C43.84844901 94.83490736 40.21223726 88.66110621 36.59375 82.4765625 C36.02315857 81.50163849 36.02315857 81.50163849 35.44104004 80.50701904 C33.56651483 77.30378801 31.693339 74.09977976 29.82226562 70.89453125 C29.13155252 69.71351704 28.44079913 68.53252639 27.75 67.3515625 C27.14671875 66.31854004 26.5434375 65.28551758 25.921875 64.22119141 C24.43409481 61.72757202 22.92126424 59.25896808 21.37988281 56.79867554 C20.93316223 56.08524176 20.48644165 55.37180798 20.02618408 54.63675499 C19.68754333 54.09662584 19.34890259 53.5564967 19 53 C18.99668985 53.55383771 18.99337971 54.10767542 18.98996925 54.67829609 C18.90878186 68.14859372 18.81657768 81.61877704 18.71247292 95.08891773 C18.66246311 101.60295787 18.61613347 108.11698142 18.578125 114.63110352 C18.54133143 120.9140576 18.49498764 127.19687442 18.44193649 133.47971153 C18.42336099 135.88033332 18.40826479 138.28098457 18.39665604 140.68165016 C18.37984766 144.03636446 18.35082553 147.39076223 18.31884766 150.74536133 C18.31668747 151.74445526 18.31452728 152.74354919 18.31230164 153.7729187 C18.30113815 154.68577133 18.28997467 155.59862396 18.2784729 156.53913879 C18.27294214 157.33280255 18.26741138 158.12646631 18.26171303 158.94418049 C18 161 18 161 16 164 C12.93301363 165.02232879 10.71335122 165.1659049 7.5 165.1875 C6.5409375 165.20167969 5.581875 165.21585938 4.59375 165.23046875 C2 165 2 165 -1 163 C-2.02606142 158.88009394 -2.12721707 154.8618446 -2.13371277 150.6309967 C-2.14011024 148.74061424 -2.14011024 148.74061424 -2.14663696 146.81204224 C-2.14628751 145.42816159 -2.145826 144.04428097 -2.14526367 142.66040039 C-2.14825807 141.19305842 -2.15166124 139.72571723 -2.15544128 138.25837708 C-2.16425574 134.2831783 -2.16661829 130.30800107 -2.16725707 126.33279347 C-2.16796888 123.84719511 -2.17010566 121.36160218 -2.17275429 118.87600517 C-2.18199838 110.19899016 -2.18609024 101.52199048 -2.18530273 92.8449707 C-2.18470179 84.76519533 -2.19525924 76.68548669 -2.2110464 68.60572821 C-2.22413208 61.6603292 -2.22948622 54.71495197 -2.22884732 47.76954073 C-2.22859269 43.62503901 -2.23142482 39.48059666 -2.24202538 35.33610725 C-2.25172398 31.43810424 -2.25177349 27.54021716 -2.24450874 23.64221001 C-2.24346518 22.21480515 -2.24581222 20.787393 -2.2518692 19.36000061 C-2.30457844 6.07418761 -2.30457844 6.07418761 0 0 Z " fill="#000000" transform="translate(10,1760)"/>
<path d="M0 0 C0.68703003 0.00248749 1.37406006 0.00497498 2.08190918 0.00753784 C35.75985267 0.19624961 64.64960582 13.48973243 88.28149414 37.22753906 C111.63885865 61.69052386 120.62897104 93.26034687 120.12109375 126.46875 C119.0532729 158.44134452 104.12364881 187.39816383 81.22265625 209.2421875 C71.29084334 218.37364497 60.06033929 224.7969802 47.8125 230.3125 C46.75675781 230.79589844 45.70101563 231.27929688 44.61328125 231.77734375 C16.93173559 243.43832777 -16.5704906 242.67251605 -44.38720703 231.86767578 C-73.43861211 219.80152652 -97.46854644 197.20596571 -110.1875 168.3125 C-122.1124639 138.70294101 -124.15501594 104.88201339 -111.71240234 75.06445312 C-110.27922228 71.77661519 -108.75435724 68.53843472 -107.1875 65.3125 C-106.71441406 64.32507812 -106.24132812 63.33765625 -105.75390625 62.3203125 C-101.81772072 54.62635212 -96.62512413 47.98016391 -91.1875 41.3125 C-90.51589844 40.48492188 -89.84429688 39.65734375 -89.15234375 38.8046875 C-67.30149417 13.05029806 -33.17757401 -0.19161305 0 0 Z M-69.1875 44.3125 C-69.94160156 44.97378906 -70.69570312 45.63507813 -71.47265625 46.31640625 C-90.12975316 63.65730585 -101.13761987 89.46002989 -102.4453125 114.65234375 C-103.41617972 143.38639532 -93.19024082 169.79925406 -73.63964844 190.78173828 C-55.26852721 210.14739566 -30.05433401 221.05155051 -3.50390625 222.515625 C22.01520867 222.834282 46.34713449 215.16531173 65.8125 198.3125 C66.60785156 197.66023438 67.40320312 197.00796875 68.22265625 196.3359375 C78.37958997 187.70175892 85.97702486 177.28135742 91.8125 165.3125 C92.25207031 164.44238281 92.69164062 163.57226562 93.14453125 162.67578125 C104.75366242 138.65084213 105.45326828 111.7927971 97.625 86.5625 C88.1899199 60.44754614 69.4230592 38.8851839 44.25 26.9375 C6.05273496 9.50863486 -37.99093303 15.91114543 -69.1875 44.3125 Z " fill="#000000" transform="translate(1116.1875,1699.6875)"/>
<path d="M0 0 C2.75234985 -0.3742218 2.75234985 -0.3742218 6.30712891 -0.37231445 C6.95471664 -0.37596512 7.60230438 -0.37961578 8.26951599 -0.38337708 C10.4221279 -0.39151387 12.573993 -0.37782701 14.7265625 -0.36328125 C16.23237101 -0.36276213 17.7381802 -0.36328183 19.24398804 -0.36479187 C22.41341168 -0.36470195 25.58258208 -0.35424916 28.75195312 -0.33618164 C32.7681046 -0.31376526 36.7838772 -0.31289848 40.80007362 -0.31969929 C43.91984273 -0.3230861 47.03952938 -0.31631768 50.15928268 -0.30657005 C51.63649434 -0.30277754 53.11371529 -0.30154447 54.59093094 -0.3031559 C74.23642118 -0.30673128 95.14955531 0.99584604 111 14 C120.40505506 23.59843003 123.56968235 34.84221028 124 48 C123.57604578 59.85658647 118.38991926 70.43467599 110.2578125 78.96875 C103.59845519 84.9598673 93.34091617 92 84 92 C90.70851314 100.80353054 97.44156557 109.58593442 104.25 118.3125 C108.78981825 124.13563288 113.28630915 129.98321154 117.6953125 135.90625 C119.5156832 138.34986626 121.34449973 140.78628611 123.1796875 143.21875 C123.72931152 143.94819824 124.27893555 144.67764648 124.84521484 145.42919922 C125.93038311 146.8691525 127.01660981 148.30830887 128.10400391 149.74658203 C128.84142822 150.72667236 128.84142822 150.72667236 129.59375 151.7265625 C130.03396484 152.31002441 130.47417969 152.89348633 130.92773438 153.49462891 C133.40255892 156.9690752 133.07767512 159.80554377 133 164 C123.37946371 166.11566028 109.23360306 168.05909891 99.97021484 164.14160156 C96.30322519 161.53698922 94.2213428 157.81962603 92 154 C90.83696478 152.38994785 89.67333254 150.78018975 88.48925781 149.18554688 C87.21202494 147.44834914 85.97833695 145.68612057 84.75 143.9140625 C81.67343697 139.50055185 78.45907795 135.19257997 75.25 130.875 C68.45407078 121.70419459 61.89905966 112.37380439 55.40356445 102.98852539 C54.94038818 102.33231201 54.47721191 101.67609863 54 101 C53.58586349 100.31155502 53.17172699 99.62311005 52.74504089 98.9138031 C51.13926021 96.78444797 51.13926021 96.78444797 48.5480957 96.45410156 C47.12630005 96.42268066 47.12630005 96.42268066 45.67578125 96.390625 C44.64775391 96.35839844 43.61972656 96.32617188 42.56054688 96.29296875 C41.48869141 96.27878906 40.41683594 96.26460937 39.3125 96.25 C38.22904297 96.22035156 37.14558594 96.19070313 36.02929688 96.16015625 C33.35278941 96.08941156 30.67715521 96.03673844 28 96 C28.00444122 96.77816574 28.00888245 97.55633148 28.01345825 98.358078 C28.05357093 105.69986912 28.08400265 113.04160692 28.10362434 120.38347912 C28.11405124 124.1578 28.12819037 127.93203016 28.15087891 131.70629883 C28.17264644 135.35025738 28.18457686 138.99412879 28.18975449 142.63814735 C28.19344323 144.02678104 28.20064646 145.41541009 28.21146011 146.80400658 C28.22602615 148.75234684 28.22681736 150.70077522 28.22705078 152.64916992 C28.231492 153.7572551 28.23593323 154.86534027 28.24050903 156.00700378 C27.99288432 159.08855059 27.40732876 161.25634881 26 164 C22.12937878 165.93531061 17.38277058 165.27192404 13.125 165.3125 C12.11824219 165.34150391 11.11148438 165.37050781 10.07421875 165.40039062 C8.61822266 165.41295898 8.61822266 165.41295898 7.1328125 165.42578125 C6.24480957 165.44036377 5.35680664 165.45494629 4.44189453 165.4699707 C1.11618727 164.82990007 0.08956379 163.6413955 -2 161 C-2.49777794 158.04864407 -2.49777794 158.04864407 -2.49447632 154.5408783 C-2.49930515 153.89437602 -2.50413398 153.24787375 -2.50910914 152.58178049 C-2.52037338 150.41730802 -2.50306804 148.25401886 -2.48583984 146.08959961 C-2.48798588 144.53724345 -2.49186383 142.98488886 -2.49734497 141.43254089 C-2.50704118 137.21767652 -2.49173235 133.00323552 -2.47143888 128.78842235 C-2.45387794 124.3802391 -2.45739276 119.97206913 -2.4581604 115.56385803 C-2.45628721 108.16188466 -2.43891989 100.76007526 -2.41162109 93.3581543 C-2.38015848 84.79549533 -2.36962529 76.23301588 -2.3710922 67.67030329 C-2.37231212 59.43805504 -2.36210783 51.20586537 -2.34550858 42.97363472 C-2.33844041 39.46771348 -2.33478173 35.96181296 -2.33372116 32.45588493 C-2.33171471 28.32971546 -2.31952508 24.20369719 -2.29938889 20.07757759 C-2.29353867 18.56142731 -2.2910882 17.04525963 -2.29224396 15.52909851 C-2.29322295 13.46328336 -2.28193873 11.39789398 -2.26742554 9.33213806 C-2.26407385 8.17495238 -2.26072216 7.0177667 -2.25726891 5.82551479 C-2 3 -2 3 0 0 Z M28 19 C28 38.14 28 57.28 28 77 C57.78868029 78.50504936 57.78868029 78.50504936 85 68 C87.52046045 65.21422792 89.36774363 62.37606983 91 59 C91.37125 58.23300781 91.7425 57.46601562 92.125 56.67578125 C94.36081438 49.83858102 94.09676816 40.63702966 91.4375 33.9375 C87.22395861 26.18108471 81.26795333 23.34774593 73.0625 20.76171875 C66.90953125 19.23132474 60.95920978 18.85757962 54.66015625 18.90234375 C53.9791687 18.90335083 53.29818115 18.90435791 52.59655762 18.90539551 C50.08518762 18.91057474 47.57384188 18.92453542 45.0625 18.9375 C36.6165625 18.9684375 36.6165625 18.9684375 28 19 Z " fill="#000000" transform="translate(685,1760)"/>
<path d="M0 0 C5.18012199 -0.50809654 10.25750066 -0.80434282 14.80712891 2.04345703 C19.33150494 5.79743205 23.07536429 10.2561603 26.796875 14.78515625 C27.96105794 16.09985981 29.12713354 17.41289586 30.296875 18.72265625 C30.81121094 19.32851562 31.32554687 19.934375 31.85546875 20.55859375 C34.61597636 23.72456827 37.48870746 26.78164972 40.359375 29.84765625 C40.96394531 30.493396 41.56851563 31.13913574 42.19140625 31.80444336 C43.43865624 33.13570586 44.68621867 34.4666757 45.93408203 35.79736328 C48.89339218 38.95525361 51.84487735 42.12043196 54.796875 45.28515625 C55.96350103 46.53519417 57.13016778 47.7851941 58.296875 49.03515625 C60.63020833 51.53515625 62.96354167 54.03515625 65.296875 56.53515625 C65.87453613 57.15406738 66.45219727 57.77297852 67.04736328 58.41064453 C68.21244875 59.65897362 69.37748791 60.90734592 70.54248047 62.15576172 C73.48295869 65.30668513 76.42427154 68.45682191 79.3671875 71.60546875 C86.38859206 79.11940093 93.39106143 86.65005851 100.35449219 94.21777344 C101.32604767 95.27352601 102.29806219 96.32885633 103.27050781 97.38378906 C104.71787415 98.9540903 106.16382327 100.52568459 107.609375 102.09765625 C108.44082031 103.00128906 109.27226562 103.90492187 110.12890625 104.8359375 C112.2636507 107.19572089 114.37031585 109.57321068 116.46362305 111.96948242 C117.0892363 112.68537033 117.71484955 113.40125824 118.35942078 114.13883972 C118.83378067 114.68212418 119.30814056 115.22540863 119.796875 115.78515625 C119.80018515 115.23408392 119.80349529 114.68301159 119.80690575 114.1152401 C119.88819736 100.69396198 119.98043408 87.2727973 120.08440208 73.85167503 C120.1343507 67.36126214 120.18068109 60.8708654 120.21875 54.38037109 C120.2556206 48.11685564 120.3019858 41.85347587 120.35493851 35.59007645 C120.37347293 33.20030726 120.3885844 30.810509 120.40021896 28.42069626 C120.41709736 25.07377982 120.44613705 21.72717349 120.47802734 18.38037109 C120.48018753 17.39206299 120.48234772 16.40375488 120.48457336 15.38549805 C120.5435972 10.53723695 120.63172034 6.23628956 122.796875 1.78515625 C125.8479385 0.76813508 128.03886561 0.61933542 131.234375 0.59765625 C132.18183594 0.58347656 133.12929688 0.56929687 134.10546875 0.5546875 C136.89342959 0.79342435 138.49694591 1.2082117 140.796875 2.78515625 C141.90029533 6.09541725 141.92823694 8.55415687 141.93731689 12.04136658 C141.94302704 13.35231796 141.94873718 14.66326935 141.95462036 16.01394653 C141.9558657 17.47015371 141.9569908 18.926361 141.95800781 20.38256836 C141.96263618 21.91344828 141.96766087 23.44432705 141.97305298 24.97520447 C141.98617509 29.13631927 141.99262129 33.29741795 141.99706364 37.45855021 C141.999994 40.05717801 142.00409869 42.65580138 142.00856781 45.25442696 C142.02224077 53.38199815 142.03190904 61.50955927 142.0357697 69.63714117 C142.04025344 79.02514859 142.05781676 88.41301063 142.0867703 97.80097383 C142.10836632 105.05454303 142.11847283 112.30807126 142.11981082 119.56167227 C142.12086013 123.89562762 142.12679476 128.22944628 142.14463043 132.56336784 C142.16107577 136.63864495 142.16328397 140.71368207 142.15449142 144.78898048 C142.15371921 146.28537513 142.15808803 147.78178249 142.16794968 149.27814484 C142.1806144 151.31937838 142.17302067 153.36070779 142.16436768 155.40196228 C142.16583424 156.5447763 142.1673008 157.68759031 142.1688118 158.86503506 C141.75654332 162.10180516 141.07728728 163.48617977 138.796875 165.78515625 C136.52734375 166.28125 136.52734375 166.28125 133.984375 166.22265625 C133.15292969 166.22136719 132.32148438 166.22007812 131.46484375 166.21875 C125.63866031 165.27188856 121.87565276 162.24412129 117.859375 158.09765625 C116.55419922 156.751875 116.55419922 156.751875 115.22265625 155.37890625 C112.70934416 152.6915645 110.28038761 149.95370861 107.88671875 147.16015625 C104.43578375 143.238346 100.84404969 139.44800664 97.27148438 135.63720703 C93.84164898 131.97780857 90.43003661 128.30353953 87.04248047 124.60498047 C82.16278926 119.27921889 77.16500496 114.11924647 72.0234375 109.04296875 C70.0451772 107.0369434 68.18846451 104.9888179 66.359375 102.84765625 C63.05476384 98.98055809 59.46842196 95.4273778 55.85058594 91.85839844 C52.55661697 88.59167112 49.48213158 85.20630417 46.47265625 81.6796875 C44.65710122 79.62713694 42.74927964 77.70769619 40.796875 75.78515625 C38.23818241 73.26560236 35.81516889 70.70396843 33.484375 67.97265625 C29.6216114 63.46609872 25.39222099 59.34943253 21.15234375 55.203125 C18.796875 52.78515625 18.796875 52.78515625 16.796875 49.78515625 C16.79605785 50.64545252 16.79605785 50.64545252 16.79522419 51.52312851 C16.78025744 65.47787513 16.73749851 79.43229818 16.66478443 93.38686752 C16.63012976 100.1352271 16.60477833 106.88338232 16.60131836 113.63183594 C16.59795453 120.14183561 16.56867774 126.6514172 16.52344322 133.16126251 C16.51043183 135.64757547 16.50617333 138.13394982 16.51072121 140.62029266 C16.51560101 144.0973646 16.48964848 147.57291901 16.45629883 151.04980469 C16.46492447 152.0827063 16.47355011 153.11560791 16.48243713 154.17980957 C16.37013177 161.14318591 16.37013177 161.14318591 13.44145203 164.4229126 C10.32559821 166.02791485 8.23035565 166.32051383 4.734375 166.28515625 C3.20103516 166.300625 3.20103516 166.300625 1.63671875 166.31640625 C-1.96425548 165.64277146 -2.96108515 164.65269473 -5.203125 161.78515625 C-5.70090294 158.83380032 -5.70090294 158.83380032 -5.69760132 155.32603455 C-5.70243015 154.67953227 -5.70725898 154.03303 -5.71223414 153.36693674 C-5.72349838 151.20246427 -5.70619304 149.03917511 -5.68896484 146.87475586 C-5.69111088 145.3223997 -5.69498883 143.77004511 -5.70046997 142.21769714 C-5.71016618 138.00283277 -5.69485735 133.78839177 -5.67456388 129.5735786 C-5.65700294 125.16539535 -5.66051776 120.75722538 -5.6612854 116.34901428 C-5.65941221 108.94704091 -5.64204489 101.54523151 -5.61474609 94.14331055 C-5.58328348 85.58065158 -5.57275029 77.01817213 -5.5742172 68.45545954 C-5.57543712 60.22321129 -5.56523283 51.99102162 -5.54863358 43.75879097 C-5.54156541 40.25286973 -5.53790673 36.74696921 -5.53684616 33.24104118 C-5.53483971 29.11487171 -5.52265008 24.98885344 -5.50251389 20.86273384 C-5.49666367 19.34658356 -5.4942132 17.83041588 -5.49536896 16.31425476 C-5.49634795 14.24843961 -5.48506373 12.18305023 -5.47055054 10.11729431 C-5.46719885 8.96010863 -5.46384716 7.80292295 -5.46039391 6.61067104 C-5.07254958 2.35108172 -4.18260179 1.02524751 0 0 Z " fill="#000000" transform="translate(304.203125,1759.21484375)"/>
<path d="M0 0 C3.1171875 -0.36328125 3.1171875 -0.36328125 6.875 -0.3125 C8.72738281 -0.30669922 8.72738281 -0.30669922 10.6171875 -0.30078125 C15.73048508 0.1538653 15.73048508 0.1538653 18 2 C19.48613966 4.57556853 20.73000537 7.04606648 21.9375 9.75 C22.51274414 11.00151855 22.51274414 11.00151855 23.09960938 12.27832031 C27.98368962 22.99637673 32.60912088 33.83211417 37.26235962 44.65187073 C40.44491042 52.04558443 43.66994258 59.42062687 46.89312744 66.79669189 C53.68752853 82.35063293 60.44043707 97.92246234 67.16946411 113.50479126 C68.1262389 115.72014766 69.08348016 117.93530267 70.04122925 120.15023804 C72.65172958 126.18861346 75.25001975 132.23196107 77.83312988 138.28210449 C78.95530016 140.89588431 80.094785 143.50151063 81.23730469 146.10644531 C81.89579247 147.63580513 82.55371026 149.16541055 83.2109375 150.6953125 C83.51343414 151.37173798 83.81593079 152.04816345 84.12759399 152.74508667 C85.74288536 156.55642833 86.31287128 159.02145814 85 163 C79.73347655 165.15448687 75.09102073 165.30217127 69.5 165.25 C68.25669922 165.26160156 68.25669922 165.26160156 66.98828125 165.2734375 C66.17746094 165.27085937 65.36664062 165.26828125 64.53125 165.265625 C63.80486328 165.26336914 63.07847656 165.26111328 62.33007812 165.25878906 C59.12337756 164.90263833 56.91554745 164.46690132 54 163 C52.22354296 160.48076107 51.16999075 157.74072138 50.0546875 154.87890625 C49.71752716 154.06437485 49.38036682 153.24984344 49.0329895 152.41062927 C47.95949105 149.80255001 46.91729761 147.18318217 45.875 144.5625 C45.16733595 142.83317635 44.45771975 141.10465018 43.74609375 139.37695312 C34 115.59540242 34 115.59540242 34 112 C12.88 112 -8.24 112 -30 112 C-30.66 113.98 -31.32 115.96 -32 118 C-32.55666871 119.42117934 -33.13041407 120.83583428 -33.72412109 122.24194336 C-34.05141205 123.01972641 -34.378703 123.79750946 -34.71591187 124.59886169 C-35.06489532 125.42088577 -35.41387878 126.24290985 -35.7734375 127.08984375 C-36.13845367 127.95259415 -36.50346985 128.81534454 -36.87954712 129.70423889 C-37.64992878 131.52266064 -38.4215497 133.34055782 -39.19433594 135.15795898 C-40.36881107 137.9229299 -41.53614231 140.69084437 -42.703125 143.45898438 C-43.45529346 145.23195574 -44.20788382 147.00474819 -44.9609375 148.77734375 C-45.3058725 149.5973436 -45.6508075 150.41734344 -46.00619507 151.26219177 C-48.05186075 156.05102567 -50.32759941 160.52919851 -53 165 C-55.39652528 165.08139142 -57.79025436 165.14067009 -60.1875 165.1875 C-60.86103516 165.21263672 -61.53457031 165.23777344 -62.22851562 165.26367188 C-66.70864748 165.32923478 -69.39440999 164.66743649 -73 162 C-72.3391829 157.30085614 -70.47061683 153.26706611 -68.5 149 C-67.92100952 147.72866211 -67.92100952 147.72866211 -67.33032227 146.43164062 C-64.96521806 141.24936518 -62.57547796 136.07839686 -60.19110107 130.90496826 C-58.80325021 127.89343193 -57.41587614 124.88167628 -56.02886963 121.86975098 C-55.29599262 120.27841478 -54.56287561 118.68718909 -53.82952881 117.09606934 C-48.49759439 105.52255823 -43.27033679 93.90754025 -38.125 82.25 C-31.5044273 67.25185805 -24.66412836 52.36185433 -17.73291016 37.50488281 C-16.97939726 35.88871613 -16.22597809 34.27250574 -15.47265625 32.65625 C-15.10724731 31.87296326 -14.74183838 31.08967651 -14.36535645 30.28265381 C-11.1406881 23.34920795 -8.00785683 16.3754495 -4.91456604 9.38244629 C-4.38535805 8.1944342 -4.38535805 8.1944342 -3.84545898 6.98242188 C-3.53656235 6.28435425 -3.22766571 5.58628662 -2.90940857 4.86706543 C-2 3 -2 3 0 0 Z M2 40 C1.65855957 40.82910889 1.31711914 41.65821777 0.96533203 42.51245117 C-0.64229557 46.40657222 -2.25605082 50.29807398 -3.875 54.1875 C-4.1666806 54.88829681 -4.45836121 55.58909363 -4.75888062 56.31112671 C-8.93544638 66.32102436 -13.30271295 76.19797706 -18.10302734 85.9284668 C-18.48797363 86.71133057 -18.87291992 87.49419434 -19.26953125 88.30078125 C-19.60573486 88.97278564 -19.94193848 89.64479004 -20.28833008 90.3371582 C-21.13115437 92.00499122 -21.13115437 92.00499122 -21 94 C-5.82 94 9.36 94 25 94 C24.11148223 89.55741114 22.80958872 85.74435805 21.0859375 81.6015625 C20.79320953 80.88954681 20.50048157 80.17753113 20.19888306 79.44393921 C19.57732429 77.93519211 18.95352408 76.42736673 18.32763672 74.92041016 C17.39342989 72.66940745 16.46762739 70.41509508 15.54296875 68.16015625 C11.62163204 58.6449751 7.43742612 49.28537803 3 40 C2.67 40 2.34 40 2 40 Z " fill="#000000" transform="translate(915,1760)"/>
<path d="M0 0 C1.13953125 -0.04898437 2.2790625 -0.09796875 3.453125 -0.1484375 C7.81731738 0.5444556 8.89372654 2.03864357 11.75 5.375 C13.23890294 7.90985568 14.41127868 10.54639982 15.578125 13.2421875 C16.09701546 14.40318214 16.09701546 14.40318214 16.62638855 15.58763123 C17.76219851 18.13691743 18.88118002 20.69321714 20 23.25 C20.79997123 25.0553269 21.60084912 26.86025229 22.40258789 28.66479492 C24.86881414 34.22741415 27.31170679 39.80009123 29.75 45.375 C30.11816833 46.21569031 30.48633667 47.05638062 30.86566162 47.92254639 C34.0115401 55.10607228 37.14933495 62.29308109 40.27124023 69.48706055 C45.24307331 80.94264559 50.27449726 92.37078258 55.33358765 103.78808594 C61.21747515 117.07165346 67.09761701 130.35720214 72.875 143.6875 C73.36589111 144.80729248 73.85678223 145.92708496 74.36254883 147.08081055 C74.80236084 148.10215088 75.24217285 149.12349121 75.6953125 150.17578125 C76.07187988 151.04372314 76.44844727 151.91166504 76.83642578 152.8059082 C77.8649061 155.69813119 78.48632386 158.31400718 78.75 161.375 C76.75 164.375 76.75 164.375 74.89599609 165.05200195 C71.06215009 165.62904157 67.2449528 165.55955034 63.375 165.5625 C62.53710938 165.57474609 61.69921875 165.58699219 60.8359375 165.59960938 C51.84081902 165.62082428 51.84081902 165.62082428 47.75 163.375 C42.24965539 156.38407072 39.43715523 147.70759408 36.1875 139.5 C35.61854164 138.07914534 35.04888461 136.65857024 34.47851562 135.23828125 C33.42076009 132.6008059 32.36678888 129.96189996 31.31811523 127.32080078 C29.46951963 122.66923575 27.60897128 118.02242819 25.75 113.375 C5.29 113.045 -15.17 112.715 -36.25 112.375 C-36.91 114.025 -37.57 115.675 -38.25 117.375 C-38.94407659 119.00666255 -39.64488691 120.63547319 -40.3515625 122.26171875 C-40.75560303 123.19193848 -41.15964355 124.1221582 -41.57592773 125.08056641 C-43.79751544 130.18007257 -46.02156609 135.27848146 -48.25 140.375 C-48.64654785 141.28362793 -49.0430957 142.19225586 -49.45166016 143.12841797 C-50.52632066 145.58737118 -51.60590013 148.04409262 -52.6875 150.5 C-53.00477051 151.22662842 -53.32204102 151.95325684 -53.64892578 152.7019043 C-57.96744862 162.46204407 -57.96744862 162.46204407 -61.06640625 164.66796875 C-63.84732492 165.56840932 -66.26544322 165.67644556 -69.1875 165.6875 C-70.20714844 165.70425781 -71.22679687 165.72101563 -72.27734375 165.73828125 C-75.61870105 165.32994192 -77.51340652 164.28507169 -80.25 162.375 C-78.22422433 154.09568934 -74.72763276 146.61641082 -71.04467773 138.97976685 C-69.22762244 135.21014146 -67.43566402 131.42858286 -65.640625 127.6484375 C-65.27203369 126.87365555 -64.90344238 126.0988736 -64.52368164 125.3006134 C-60.84419866 117.55267728 -57.28381458 109.75272351 -53.75 101.9375 C-53.13177429 100.57128013 -52.51352875 99.20506924 -51.89526367 97.83886719 C-50.96057422 95.77335381 -50.02593337 93.70781886 -49.09172058 91.64208984 C-46.84791226 86.68432806 -44.58652607 81.73482639 -42.31640625 76.7890625 C-40.98174508 73.88022015 -39.64709595 70.97137228 -38.3125 68.0625 C-37.81932785 66.98789017 -37.81932785 66.98789017 -37.31619263 65.89157104 C-33.46451751 57.49249908 -29.65889537 49.0753242 -25.9296875 40.62109375 C-25.57283371 39.81304794 -25.21597992 39.00500214 -24.84831238 38.17247009 C-23.1380963 34.29753455 -21.43406472 30.42007407 -19.74047852 26.5378418 C-8.20503965 0.23916035 -8.20503965 0.23916035 0 0 Z M-5.25 42.375 C-11.44771291 55.67959781 -17.58330237 69.00544817 -23.5 82.4375 C-24.21603394 84.05966431 -24.21603394 84.05966431 -24.9465332 85.71459961 C-25.59948364 87.20358765 -25.59948364 87.20358765 -26.265625 88.72265625 C-26.65008789 89.59929932 -27.03455078 90.47594238 -27.43066406 91.37915039 C-28.31329416 93.16960023 -28.31329416 93.16960023 -28.25 94.375 C-13.07 94.375 2.11 94.375 17.75 94.375 C15.53032738 87.57143431 15.53032738 87.57143431 12.98828125 80.94433594 C12.67785889 80.2003656 12.36743652 79.45639526 12.04760742 78.68988037 C11.72252197 77.9208136 11.39743652 77.15174683 11.0625 76.359375 C10.71872314 75.54051819 10.37494629 74.72166138 10.02075195 73.87799072 C9.2996745 72.16307866 8.57691735 70.44887196 7.85253906 68.73535156 C6.74791025 66.12005236 5.65099609 63.50160863 4.5546875 60.8828125 C3.84941872 59.20813937 3.14370502 57.53365353 2.4375 55.859375 C2.11241455 55.0822113 1.7873291 54.30504761 1.45239258 53.5043335 C-0.19879307 49.61410496 -1.87187484 45.89162643 -4.25 42.375 C-4.58 42.375 -4.91 42.375 -5.25 42.375 Z " fill="#000000" transform="translate(563.25,1759.625)"/>
<path d="M0 0 C0.6946637 -0.00511093 1.38932739 -0.01022186 2.1050415 -0.01548767 C4.40230925 -0.02939169 6.69927719 -0.0284261 8.99658203 -0.02612305 C10.59457511 -0.03001003 12.19256716 -0.03434471 13.79055786 -0.03910828 C17.14133043 -0.04657258 20.49199765 -0.04627808 23.84277344 -0.04101562 C28.1324407 -0.03522591 32.4216755 -0.05213863 36.71127129 -0.0753603 C40.01244622 -0.09010905 43.31351734 -0.09096771 46.61471939 -0.08785057 C48.19593282 -0.08836338 49.77715213 -0.09359365 51.35833359 -0.10366249 C53.57250598 -0.1160297 55.78584054 -0.10923391 58 -0.09765625 C59.88838089 -0.09860039 59.88838089 -0.09860039 61.81491089 -0.0995636 C65.38658572 0.30369638 67.29099156 1.1056364 70.12939453 3.2746582 C70.74462891 5.23583984 70.74462891 5.23583984 70.72314453 7.43481445 C70.72056641 8.22823242 70.71798828 9.02165039 70.71533203 9.83911133 C70.68697266 10.6634668 70.65861328 11.48782227 70.62939453 12.3371582 C70.63326172 13.57949219 70.63326172 13.57949219 70.63720703 14.84692383 C70.5634163 19.38136442 70.5634163 19.38136442 70.12939453 21.2746582 C65.82827917 24.14206844 62.05502415 24.4010522 56.97192383 24.38818359 C55.97126389 24.38810806 54.97060394 24.38803253 53.93962097 24.38795471 C52.87173843 24.38279343 51.8038559 24.37763214 50.70361328 24.37231445 C49.60088577 24.37089951 48.49815826 24.36948456 47.36201477 24.36802673 C43.84694687 24.36243824 40.33194312 24.34988779 36.81689453 24.3371582 C34.43082774 24.33214172 32.04475996 24.32757907 29.65869141 24.32348633 C23.81554796 24.31332434 17.9725429 24.29374653 12.12939453 24.2746582 C11.46939453 33.1846582 10.80939453 42.0946582 10.12939453 51.2746582 C14.08939453 50.2846582 18.04939453 49.2946582 22.12939453 48.2746582 C25.04808901 47.9892176 27.67160961 47.7925827 30.56689453 47.8371582 C31.28425781 47.84473145 32.00162109 47.85230469 32.74072266 47.86010742 C43.58360915 48.19021308 52.59064834 51.66625993 61.12939453 58.2746582 C62.16064453 58.9965332 63.19189453 59.7184082 64.25439453 60.4621582 C72.57752773 67.69866012 78.22127039 80.3771685 79.12939453 91.2746582 C79.91623098 106.98600531 76.17688072 120.54744382 65.87939453 132.7121582 C54.53429584 144.3830452 40.21549215 149.05395277 24.19189453 149.5246582 C5.48723017 149.28870487 -9.54242247 143.8178119 -22.87060547 130.2746582 C-16.6992684 116.5532811 -16.6992684 116.5532811 -10.87060547 113.2746582 C-6.24906714 113.56898381 -3.61419464 114.83783645 0.00439453 117.6496582 C8.46744523 123.85081247 17.66603297 126.20857808 28.12939453 125.2746582 C34.59175933 123.99733987 39.8785026 121.3867698 44.12939453 116.2746582 C49.2453959 107.45771968 50.307463 98.58825771 48.00439453 88.7121582 C45.99732137 81.97212648 42.62062594 77.53196472 36.62939453 73.8371582 C29.3395142 70.61117668 20.25640275 71.14932082 12.87939453 73.8371582 C9.20292595 75.50334101 6.16182241 77.66615979 2.94189453 80.0871582 C-0.23940442 82.38641477 -1.44693554 83.23749417 -5.43310547 83.5871582 C-10.03730449 81.8291913 -14.12867371 79.50267659 -17.87060547 76.2746582 C-18.87772863 73.25328872 -18.88853716 72.17658847 -18.45263672 69.13793945 C-18.33460693 68.26967529 -18.21657715 67.40141113 -18.0949707 66.50683594 C-17.95905518 65.54334229 -17.82313965 64.57984863 -17.68310547 63.5871582 C-16.58415022 55.41339485 -15.64073583 47.2408288 -14.84716797 39.0324707 C-14.7609166 38.14317368 -14.67466522 37.25387665 -14.58580017 36.33763123 C-14.23832986 32.73614924 -13.89332084 29.13451093 -13.56045532 25.53164673 C-13.32420537 22.97538844 -13.08025426 20.41995295 -12.83544922 17.86450195 C-12.76778351 17.10174957 -12.7001178 16.33899719 -12.63040161 15.5531311 C-12.17936011 10.91337661 -11.47376575 6.66676876 -9.87060547 2.2746582 C-6.19502532 -0.17572857 -4.38484576 0.01606795 0 0 Z " fill="#000000" transform="translate(1086.87060546875,1750.725341796875)"/>
<path d="M0 0 C3.58331625 -0.02907084 7.16660208 -0.04682263 10.75 -0.0625 C11.76578125 -0.07087891 12.7815625 -0.07925781 13.828125 -0.08789062 C14.8078125 -0.09111328 15.7875 -0.09433594 16.796875 -0.09765625 C17.69760742 -0.10289307 18.59833984 -0.10812988 19.52636719 -0.11352539 C21.86381216 -0.00625023 23.79693002 0.21517954 26 1 C27.407424 3.814848 27.12922233 6.15163438 27.13371277 9.30126953 C27.13597833 9.95493563 27.13824388 10.60860172 27.14057809 11.28207588 C27.14693121 13.48233916 27.1460879 15.68254104 27.14526367 17.8828125 C27.14825431 19.45619792 27.15165661 21.0295826 27.15544128 22.60296631 C27.16429423 26.88384128 27.16661991 31.16469629 27.16725707 35.44557953 C27.16820499 39.0144249 27.17188185 42.58326558 27.17542917 46.15210915 C27.1835783 54.56820538 27.18601294 62.9842909 27.18530273 71.40039062 C27.18470149 80.09479631 27.19526145 88.78914004 27.2110464 97.48353004 C27.22410069 104.93831997 27.22948754 112.39308958 27.22884732 119.84789085 C27.22859176 124.30472362 27.23147528 128.76150133 27.24202538 133.21832275 C27.25167119 137.40763012 27.25180989 141.59682938 27.24450874 145.78614044 C27.24345857 147.32690844 27.24585124 148.86768304 27.2518692 150.40843964 C27.25953131 152.50533242 27.25498332 154.60184645 27.24723816 156.69873047 C27.24778293 157.87418427 27.24832769 159.04963806 27.24888897 160.26071167 C27 163 27 163 25 165 C22.83276367 165.25878906 22.83276367 165.25878906 20.16796875 165.265625 C18.72260742 165.26949219 18.72260742 165.26949219 17.24804688 165.2734375 C16.23806641 165.26570313 15.22808594 165.25796875 14.1875 165.25 C13.18912109 165.25773437 12.19074219 165.26546875 11.16210938 165.2734375 C9.71094727 165.26957031 9.71094727 165.26957031 8.23046875 165.265625 C7.34770264 165.26336914 6.46493652 165.26111328 5.55541992 165.25878906 C2.57549621 164.95701022 0.57422251 164.56415573 -2 163 C-2.97049595 158.86722156 -3.12890826 154.86317401 -3.14044189 150.6309967 C-3.14615204 149.37074173 -3.15186218 148.11048676 -3.15774536 146.81204224 C-3.15899047 145.42816172 -3.16011562 144.04428109 -3.16113281 142.66040039 C-3.16576555 141.19305803 -3.17079082 139.72571686 -3.17617798 138.25837708 C-3.18925639 134.28318297 -3.19573751 130.30800572 -3.20018864 126.33279347 C-3.20312554 123.84719509 -3.20723142 121.36160126 -3.21169281 118.87600517 C-3.22535309 111.09282677 -3.23502804 103.30965884 -3.2388947 95.52646929 C-3.24337793 86.5528228 -3.26094421 77.57932844 -3.2898953 68.60572821 C-3.31152293 61.66032922 -3.32159949 54.71497302 -3.32293582 47.76954073 C-3.32398268 43.62500329 -3.32986561 39.48060914 -3.34775543 35.33610725 C-3.36425584 31.43806542 -3.36638217 27.54027436 -3.35761642 23.64221001 C-3.35684722 22.21480003 -3.36117346 20.78737645 -3.37107468 19.36000061 C-3.45780606 6.07379752 -3.45780606 6.07379752 0 0 Z " fill="#000000" transform="translate(229,1760)"/>
</svg>
