<?xml version="1.0" encoding="UTF-8"?>
<svg id="Layer_1" xmlns="http://www.w3.org/2000/svg" version="1.1" viewBox="0 0 680 200.64">
  <path d="M278.400,122.270h-8.900c-9.370,-1.410 -17.130,-7.420 -20.900,-16.250 -4.630,-10.850 -3.220,-23.660 4.180,-33.040 3.740,-4.740 9.520,-8.240 15.570,-8.890 3.810,-0.410 7.750,-0.480 11.500,-0.020 9.390,1.160 16.880,7.890 20.120,16.560s3.120,17.580 -0.380,25.710c-3.830,8.900 -11.740,14.730 -21.200,15.940ZM274.830,117.750c3.970,-0.120 7.220,-1.750 9.490,-4.780 6.010,-8.030 6.340,-20.390 4.410,-30.140 -0.690,-3.470 -2.080,-6.630 -4.070,-9.450 -4.720,-6.710 -15.300,-7.020 -20.150,-1.160 -6.870,8.280 -7.300,22.790 -4.310,33.030 2.090,7.160 6.600,12.750 14.630,12.500Z"/>
  <path d="M25.410,122.310h-7.940c-4.380,-0.480 -8.630,-1.610 -12.280,-4.360 -1.270,-0.950 -3.420,-2.630 -3.570,-4.230 -0.350,-3.860 -0.200,-7.400 -0.170,-11.220l3.170,0.120c1.480,9.420 7.500,15.350 17.360,15.000 3.530,-0.120 7.210,-1.410 8.840,-4.730 1.750,-3.570 0.160,-7.810 -3.020,-10.130 -3.460,-2.520 -7.040,-4.480 -10.790,-6.580 -8.000,-4.490 -15.940,-8.160 -15.140,-18.700 0.320,-4.210 2.050,-7.870 5.720,-10.270 2.410,-1.580 5.410,-3.100 8.430,-3.230 3.660,-0.160 7.190,-0.200 10.830,0.010 4.310,0.250 8.320,2.380 11.500,5.030 1.250,1.040 1.880,2.680 1.890,4.180l0.090,9.810 -3.180,-0.130c-0.880,-4.500 -2.210,-8.580 -5.620,-11.580 -3.910,-3.440 -9.850,-4.050 -14.590,-2.060 -2.320,0.970 -3.740,3.170 -4.120,5.230 -0.980,5.420 3.780,8.600 8.510,11.180 5.050,2.750 10.050,5.300 14.800,8.410s7.110,7.920 6.650,13.450c-0.790,9.480 -8.520,13.910 -17.380,14.790Z"/>
  <path d="M201.970,115.860c-5.780,3.400 -12.020,5.210 -18.650,5.220l-21.090,0.050v-45.070c0.010,-1.690 -0.150,-3.310 -0.600,-4.770 -0.760,-2.500 -2.880,-3.690 -5.690,-3.400l-0.060,-3.000 24.640,0.050c5.920,0.010 11.500,0.920 16.980,2.820 7.060,2.450 12.280,7.460 14.680,14.580 2.230,6.610 2.290,13.740 0.180,20.460 -1.730,5.510 -5.290,10.030 -10.400,13.040ZM200.860,93.700c0.080,-4.690 -0.470,-9.090 -2.410,-13.270 -3.240,-6.970 -9.770,-11.360 -17.560,-11.290l-6.850,0.590 0.020,46.660c3.350,0.310 6.620,0.490 9.910,0.090 11.190,-1.380 16.690,-11.980 16.880,-22.790Z"/>
  <path d="M535.660,121.280c-6.830,2.030 -14.650,-0.230 -18.170,-6.080l-11.600,-19.260 -3.550,0.160 0.020,25.020h-11.810s-0.070,-47.790 -0.070,-47.790c0.000,-3.530 -2.660,-5.790 -6.020,-5.480v-2.920s23.700,0.020 23.700,0.020c7.470,0.000 15.570,1.090 20.290,6.910 3.100,5.010 3.200,11.610 -0.160,16.540 -2.380,3.490 -6.240,5.250 -10.510,6.090l7.150,11.970 5.550,8.660c1.640,1.600 3.190,2.670 5.430,3.310l-0.270,2.870ZM516.390,87.200c1.980,-2.650 1.970,-5.740 1.830,-8.740 -0.180,-4.160 -2.550,-7.450 -6.630,-8.700 -3.500,-1.070 -9.250,-1.300 -9.250,1.100v20.810s4.820,0.000 4.820,0.000c3.510,0.000 7.090,-1.600 9.240,-4.480Z"/>
  <path d="M367.220,93.960h-21.340s0.020,22.400 0.020,22.400h14.490c2.750,-0.010 5.350,-0.840 7.580,-2.290 2.340,-2.000 3.600,-4.310 4.630,-7.380l3.030,0.760 -2.850,9.640c-1.040,2.240 -3.070,3.940 -5.860,3.950l-32.930,0.090v-47.480c-0.020,-3.630 -2.380,-6.030 -6.240,-5.770l-0.080,-2.960h36.880c4.010,0.010 7.700,1.200 7.800,4.830l0.250,9.480 -3.020,-0.020c-0.280,-2.460 -0.620,-4.230 -1.570,-6.230 -1.670,-2.020 -3.940,-3.010 -6.590,-3.300l-15.540,-0.030v19.920s21.350,0.020 21.350,0.020l-0.020,4.370Z"/>
  <path d="M433.710,121.040c-8.150,1.240 -15.930,-0.080 -20.450,-6.820l-10.450,-15.610 -16.930,22.540 -6.670,-0.130 20.430,-27.130 -12.910,-19.070 -4.610,-5.520c-1.420,-0.970 -2.820,-1.480 -4.550,-1.680v-2.690s8.270,0.030 8.270,0.030c4.850,0.060 9.040,2.200 12.110,6.010l9.460,13.860 15.370,-19.920 6.540,0.080 -18.710,24.450 15.760,23.470c1.770,2.630 3.920,4.450 7.160,5.220l0.170,2.900Z"/>
  <path d="M148.550,99.750c-0.010,7.270 -3.140,15.080 -9.080,18.930 -3.050,1.970 -6.500,2.820 -10.070,3.260 -1.710,0.210 -3.290,0.050 -5.010,-0.030 -5.940,-0.260 -11.670,-2.180 -15.850,-6.550 -4.440,-4.630 -5.690,-11.710 -5.700,-18.220l-0.050,-21.820c0.000,-1.180 -0.210,-2.560 -0.420,-3.650 -0.530,-2.630 -2.590,-4.030 -5.410,-3.720l-0.090,-3.050 11.880,0.080c3.970,0.030 5.730,3.290 5.740,7.440l0.080,25.060c0.020,7.280 1.620,15.370 8.500,18.340 5.190,2.240 11.790,1.210 15.620,-3.080 3.000,-3.360 4.590,-7.920 4.610,-12.490l0.160,-35.300 5.150,-0.030 -0.070,34.830Z"/>
  <path d="M593.850,121.070c-7.060,1.230 -16.280,-0.500 -19.200,-6.880l-4.020,-8.770h-21.690s-6.670,15.690 -6.670,15.690l-5.620,-0.040 23.980,-56.020 5.350,-0.100 15.130,35.180 4.670,10.670c1.520,3.480 4.210,6.510 8.010,7.260l0.050,3.020ZM568.610,100.810l-8.750,-20.740 -9.100,20.720 17.850,0.020Z"/>
  <path d="M452.200,69.780l-7.140,-0.080c-2.620,-0.030 -5.180,1.470 -6.400,3.740 -0.970,1.810 -1.270,3.540 -1.680,5.730l-2.840,0.050 0.070,-8.810c0.030,-3.670 2.900,-5.470 6.710,-5.480l40.490,-0.030 0.060,4.740 -17.360,0.020v51.440s-11.940,0.030 -11.940,0.030l0.020,-51.350Z"/>
  <path d="M65.100,69.790c-5.270,-0.400 -11.950,-0.610 -13.930,4.040 -0.750,1.760 -0.930,3.370 -1.280,5.400l-2.860,-0.030 0.090,-9.080c0.010,-1.410 0.760,-3.400 2.050,-4.080 1.550,-0.820 3.390,-1.120 5.230,-1.120h40.070s0.020,4.730 0.020,4.730h-17.520s0.000,51.460 0.000,51.460l-11.880,0.020v-51.340Z"/>
  <path d="M637.090,69.780l-6.950,-0.040c-2.380,-0.010 -4.910,1.210 -6.310,3.090s-1.600,3.990 -1.970,6.360l-2.830,0.020 0.120,-8.950c0.040,-3.020 2.360,-5.260 5.580,-5.260l41.420,-0.070 0.060,4.730 -17.320,0.020v51.430s-11.820,0.000 -11.820,0.000l0.020,-51.340Z"/>
  <path d="M616.200,121.130h-11.530c-4.410,0.000 -6.490,-3.180 -6.640,-7.730l0.050,-48.480h11.760s0.000,47.430 0.000,47.430c0.150,3.540 2.440,5.750 6.270,5.550l0.080,3.230Z"/>
  <path d="M241.650,121.160l-11.990,-0.060c-3.900,-0.020 -6.090,-3.570 -6.050,-7.700l0.040,-48.470h11.710s0.000,46.660 0.000,46.660c0.150,1.540 0.340,3.190 1.210,4.330 1.180,1.540 2.980,1.900 5.010,2.130l0.060,3.110Z"/>
</svg>
