<?xml version="1.0" encoding="UTF-8"?>
<svg id="Layer_1" xmlns="http://www.w3.org/2000/svg" version="1.1" viewBox="0 0 1374.02 200.64">
  <!-- Generator: Adobe Illustrator 30.4.0, SVG Export Plug-In . SVG Version: 2.1.4 Build 226)  -->
  <path d="M559.54,122.91l9.27-.12-11.63,36.31c-.56,1.75-.57,5.27,1.21,5.95,5.72-.94,15.59-15.95,17.65-21.39l7.88-20.77,9.13-.04-12.81,39.44c-1.87,5.75,8.25.2,14.43-11.72-.11,4.99-1.97,9.17-.2,13.59s11.23,4.47,14.58-.88c1.71-2.73,2.23-6.56.08-9.3l-6.34-8.09c-4.16-5.31-4.01-11.95.11-17.37,6.4-8.41,19.43-7.86,21.72-3.22.8,1.62,1.32,3.72-.19,5.4-.98-4.15-3.27-5.71-6.84-5.85s-6.07.82-7.93,3.45c-1.71,2.41-2.23,6.05-.18,8.66l7.6,9.71c4.72,6.02,3.83,13.78-2.01,18.55-7.58,6.18-19.97,5.65-23.15,1.62-1.58-2.01-.95-4.2-1.24-7.46-3.92,6.47-12.29,13.05-17.14,8.52-1.65-1.54-2.39-3.81-1.79-6.4l2.29-10.04c-4.67,7.49-11.69,18.09-19.66,18.27-3.96.09-6.34-2.74-6.24-6.69.11-4.23,1.12-8.16,2.41-12.17l9.01-27.99v.02Z"/>
  <path d="M637.25,163.89c5.9,5.57,19.4-1.46,26.9-11.27.71-.92,1.44-2.14,2.95-1.62-7.38,13.53-23.29,23.35-36.97,16.93-11.73-5.49-4.97-27.18,9.38-39.89,4.99-4.44,11.37-6.29,17.91-5.66,4.42.43,7.13,4.25,6.33,8.59-2.19,11.92-16.07,18.63-28.54,20.37-1.79,3.96-1.35,9.36,2.03,12.55h0ZM635.09,150.06c15.42-2.2,25.53-21.32,21.1-24.51-6.3-4.53-18.67,13.25-21.1,24.51h0Z"/>
  <g>
    <path d="M370.54,150.35c-4.7,13-20.42,22.68-34.31,18.43-4.97-1.52-7.31-5.87-8.42-10.56-5.19,8.32-15.58,14.66-20.6,10.19-1.57-1.4-2.61-4.43-1.8-6.84l9.29-27.86c.8-2.4,1.45-4.6,1.31-7.17-3.55,1.19-5.9,3.5-8.3,6.24-9.13,10.41-15.09,22.66-18.6,36.18-3.09.36-6.02.53-9.31-.57l9.34-30.69c1.15-3.76,2.93-7.13,2.59-11.46-5.11,1.85-8.23,5.63-11.35,9.69-7.49,9.75-12.44,21.01-15.79,33.06-2.69.41-5.59.39-8.3-.25l4.01-17.38c-5.51,8.25-14.32,21.65-22.22,17.29-2.9-1.6-3.13-5.49-2.59-8.47.69-3.86,2.9-6.84,2.69-11.01-5.06,9.38-14.74,23.87-24,19.78-7.03-3.11-.06-20.93,3.27-31.28l4.05-12.61-12.12.51-8.2,24.72c-3.66,11.05-8.61,21.49-15.89,30.47-10.65,13.14-27.37,22.53-43.97,19.2-3.81-.76-7.58-2.21-9.65-5.85,14.55,7.15,30.21,4.32,41.08-7.61,6.67-7.32,11.92-15.68,14.95-25.28l11.38-35.97c-2.23-.1-3.57,0-5.05-1.24,1.32-1.57,3.29-1.51,5.87-1.04,6.81-19.57,14.87-47.9,38.34-45.73,3.53.32,7.41,1.27,9.28,4.37-12.46-4.41-19.41-.02-25.31,11.34-4.94,9.52-8.65,19.33-11.77,29.85h21.32l-9.43,28.84c-1.4,4.27-2.73,8.41-2.37,13.11,3,.5,5.36-1.48,7.31-3.7,9.65-11,15.62-24.28,20-38.18l8.85.02-8.27,24.63c-2.27,6.76-5.63,16.69-2.96,17.08,3.12.46,8.07-6.23,11.36-11.05,6.37-9.33,10.32-19.7,13.43-30.62l8.33-.02-6.14,21.46c4.09-6.25,7.9-11.76,13.05-16.94,5.15-5.19,11.51-7.01,14.63-3.81,3.87,3.98-1.44,13.11-2.48,20.04,5.98-8.47,12.78-20.18,22.16-21.42,1.85-.24,4.1.29,5.18,1.61.97,1.21,1.68,3.54,1.06,5.36l-5.94,17.6c-2.26,6.69-6.87,16.78-3.6,18.29,1.74.8,8.52-5.46,12.03-10.09,1.75-16.15,17.47-35.01,33.23-32.59,4.12.63,6.42,3.87,5.83,7.97-1.72,11.97-16.47,19.11-28.33,20.85-.86,3.83-.59,7.57,1.4,10.67,2.13,3.32,6.34,4.03,10.08,3.26,8.75-1.81,14.02-7.85,20.39-14.82h-.02ZM339.23,149.62c10.96-2.43,18.22-9.98,21.05-19.15.07-2.14.05-4.21-1.59-5.08-5.58-2.94-18.12,14.4-19.46,24.22h0Z"/>
    <path d="M379.83,180.87c-4.34-11.51,4.92-21.98,15.37-28.54,18.29-11.49,38.76-17.98,60.15-20.92l12.65-34.8c2.4-6.58,5.38-12.27,10.15-18.34l-13.74-.59c-20.04-.85-45.07,8.17-54.12,27.35-5.01,10.63-3.9,23.51,5.65,29.99-10.9-1.4-17.49-11.68-16.16-22.22.99-7.88,5.42-13.94,11.19-19.32,23.02-21.52,55.06-20.02,86-17.41-4.59,2.15-8.24,2.95-10.45,7.11-4.23,6.43-6.89,13.62-9.46,20.95l-9.08,26.33,28.32-.9c3.87-11.9,7.56-23.17,13-34.27,6.78-14.46,22.88-32.07,38.81-28.21-6.36,1.59-11.21,3.93-15.32,8.33-12.77,14.52-19.25,34.86-25.25,53.29l5.08-.56c-1.52,1.89-3.35,2.24-5.81,2.82l-8.12,26.73c-2.5,8.22-3.24,17.71,3.56,17.86,1.11.02,2.17-.17,2.68,1.09-5.99,1.66-14.3,1.71-17.34-1.38-6.25-6.34,4.14-30.04,7.81-42.94l-28.27.85c-3.07,8.37-6.14,16.47-10.6,24.31-13.16,23.45-37.99,41.21-65.02,33.65-5.16-1.44-9.82-5.25-11.69-10.22v-.03ZM426.35,182.73c14.66-11.56,22.41-30.37,28.18-48.63-20.42,2.33-50.99,11.66-63.59,26.97-4.58,5.57-6.53,13.02-3.44,19.62,5.82,12.46,26.88,11.53,38.85,2.02h0Z"/>
    <path d="M110.55,71.29c-14.59,4.6-21.97,22.61-27.13,37.42l-9.11,26.17c27.33,5.41,53.39-16.91,55.89-43.17.98-10.3-4.38-18.66-13.44-22.54-14.06-6.02-32.94-5.03-48.31-2.12-13.67,2.59-26.12,7.77-37.43,15.91-12.56,9.05-23.88,24.84-19.32,40.16,1.81,6.06,5.95,10.09,12.07,11.8,11.72,3.25,23.79-2.99,28.6-14.06.37,4-1.97,6.86-4.54,9.46-9.67,9.81-25.24,12.44-37.2,5.58-9.21-5.28-12.58-15.27-9.56-25.03,6.58-21.3,31.09-35.48,51.86-42.55,15.36-5.22,31.29-6.32,47.55-5.83,11.47.36,22.21,3.17,31.4,9.78,13.51,9.71,11.83,26.71,1.68,40.2-14.01,18.63-37.14,27.97-60.35,25-9.94,27.17-29.53,50.87-60.27,43.27-2.7-1.41-5.71-1.68-6.94-5.04,11.38,5.77,24.13,4.73,34.07-3.16,7.23-5.74,12.82-13.11,16.01-22.01l13.85-38.65c2.77-7.74,6.01-14.78,10.18-21.78,5.63-9.46,14.06-16.67,24.78-19.37,1.89-.48,3.9-.94,5.66.52v.02Z"/>
    <path d="M132.09,127.02c6.96-5.06,18.21-6.95,21.58-2.2,1.35,1.9,2.05,4.2,1.26,6.66-3.78,11.78-16.75,17.43-28.94,19.74-1.12,3.26-1.05,6.69.21,9.8,3.17,7.77,14.28,4.76,22.97-4.07,4.92-4.99,8.19-10.48,10.13-17.34l4.69-16.56c3.1-.57,5.74-.39,8.93-.18l-6.15,21.51c6.1-8.4,11.96-21.05,21.37-23.17,1.09-.24,2.21.05,2.66.73.42.64.52,1.87.01,2.76l-4.29,7.64c-.72-1.4-2.22-3.25-3.65-2.8-9.65,2.97-20.2,27.4-23.13,39.47-3.08.4-5.97.31-8.95-.61l3.12-13.26c-7.39,9.31-15.46,15.53-27.31,14.52-7.92-.68-13.05-7.79-11.52-15.78,2.03-10.66,8.24-20.49,17.01-26.86h0ZM148.43,128.13c-.06-1.33-.77-2.28-1.51-2.71s-1.7-.49-2.74-.21c-8.53,3.17-15.55,14.84-17.99,24.42,10.86-2.4,21.59-11,22.24-21.5h0Z"/>
    <path d="M515.84,169.09c-12.74-3.37-7.83-30.47,10.82-43.45,4.88-3.4,11.03-4.46,16.5-2.35,10.59,4.1,6.15,27.91-6.16,39.84-5.68,5.5-13.25,8.05-21.16,5.96h0ZM537.54,125.28c-3.93-.48-6.91,3.19-8.91,5.97-6.04,8.43-10.25,17.5-10.77,28.03-.11,2.35-.05,5.66,1.98,7.01,11.74,7.84,27.66-39.81,17.7-41.01Z"/>
    <path d="M357.21,44.61c-2.75,5.69-10.62,9.54-13.39,6.64-.79-.83-1.76-3.06-1.25-4.7l6.82-22.34c-1.72-.49-3.06.37-4.16,1.4-7.55,7.08-12.4,15.98-14.92,26.03-2.06.33-3.77.31-6.04-.03l14.88-49.03c-2.1-.12-3.9.57-5.07-1.28l12.23-1.29-11.35,35.31c4.96-7.42,14.27-18.26,20.02-13.86,1.33,1.03.81,4.27.31,5.8l-6.62,20.11c-.25.76.08,1.96.51,2.19.56.3,1.42.03,2.06-.45l5.97-4.5h-.01Z"/>
    <path d="M302.35,46.72c-.98,3.23,2.28,3.08,5.31,5.2-6.59-.92-12.54-.24-19.62-.38,4.08-1.59,6.31-1.99,7.46-5.76l12.26-40.21c-9.47-.58-15.14.05-18.21,8.4-.35-3.72,1.28-6.69,2.08-10.18l38.13.11-3.61,10.79c-.59-2.53.76-5.77-1.14-7.57-2.52-2.4-6.82-1.95-10.19-1.24l-12.46,40.84h-.01Z"/>
    <path d="M368.59,49.11c6.26,2.06,10.6-2.86,15.14-7.12-2.61,7.74-12.31,12.26-20.5,9.12-8.18-3.15-4.66-18.85,6.61-27.57,3.54-2.74,9.01-4.39,12.87-1.73,3.37,2.32,1.75,7.43-.71,10.1-4.15,4.5-10.02,5.91-15.66,8.23-2.1,1.38-.78,7.96,2.26,8.96h-.01ZM366.09,38.63c10.55-2.13,16.77-13.76,13.05-15.86-2.14-1.21-7.4,3.23-9.34,7.56l-3.71,8.3h0Z"/>
    <path d="M495.6,36.13c-2.33,1.64-5.11,1.32-8.38,1.32h-87.47c.63-1.47,2.36-1.96,4-1.95l56.05.19,35.79.43h.01Z"/>
    <path d="M270.38,37.47h-90.58c-2.56-.01-4.48.3-6.31-1.51l23.1-.21,65.6-.18,9.59.39c.09.37-.46,1.52-1.4,1.52h.01Z"/>
  </g>
</svg>