<?xml version="1.0" encoding="UTF-8"?>
<svg version="1.1" xmlns="http://www.w3.org/2000/svg" width="1246" height="1643">
  <path d="M513.313,1513.186h-16.507c-17.379,-2.615 -31.772,-13.762 -38.765,-30.140 -8.588,-20.124 -5.972,-43.884 7.753,-61.282 6.937,-8.792 17.657,-15.283 28.879,-16.489 7.067,-0.760 14.374,-0.890 21.330,-0.037 17.416,2.152 31.308,14.634 37.318,30.715s5.787,32.607 -0.705,47.686c-7.104,16.507 -21.775,27.321 -39.321,29.565ZM506.691,1504.802c7.363,-0.223 13.391,-3.246 17.602,-8.866 11.147,-14.894 11.759,-37.819 8.180,-55.903 -1.280,-6.436 -3.858,-12.297 -7.549,-17.528 -8.755,-12.445 -28.378,-13.020 -37.374,-2.152 -12.742,15.357 -13.540,42.270 -7.994,61.263 3.876,13.280 12.241,23.648 27.135,23.185Z"/>
  <path d="M44.075,1513.260h-14.727c-8.124,-0.890 -16.007,-2.986 -22.777,-8.087 -2.356,-1.762 -6.343,-4.878 -6.622,-7.846 -0.649,-7.159 -0.371,-13.725 -0.315,-20.810l5.880,0.223c2.745,17.472 13.911,28.471 32.199,27.822 6.547,-0.223 13.373,-2.615 16.396,-8.773 3.246,-6.622 0.297,-14.486 -5.601,-18.789 -6.417,-4.674 -13.058,-8.309 -20.013,-12.204 -14.838,-8.328 -29.565,-15.135 -28.081,-34.684 0.594,-7.809 3.802,-14.597 10.609,-19.048 4.470,-2.931 10.034,-5.750 15.636,-5.991 6.788,-0.297 13.336,-0.371 20.087,0.019 7.994,0.464 15.432,4.414 21.330,9.329 2.318,1.929 3.487,4.971 3.506,7.753l0.167,18.195 -5.898,-0.241c-1.632,-8.346 -4.099,-15.914 -10.424,-21.478 -7.252,-6.380 -18.269,-7.512 -27.061,-3.821 -4.303,1.799 -6.937,5.880 -7.642,9.700 -1.818,10.053 7.011,15.951 15.784,20.736 9.367,5.101 18.640,9.830 27.451,15.599s13.187,14.690 12.334,24.947c-1.465,17.583 -15.803,25.800 -32.236,27.432Z"/>
  <path d="M371.553,1501.297c-10.721,6.306 -22.294,9.663 -34.591,9.682l-39.117,0.093v-83.594c0.019,-3.135 -0.278,-6.139 -1.113,-8.847 -1.410,-4.637 -5.342,-6.844 -10.554,-6.306l-0.111,-5.564 45.701,0.093c10.980,0.019 21.330,1.706 31.494,5.230 13.095,4.544 22.777,13.837 27.228,27.043 4.136,12.260 4.247,25.485 0.334,37.949 -3.209,10.220 -9.812,18.603 -19.290,24.186ZM369.494,1460.195c0.148,-8.699 -0.872,-16.860 -4.470,-24.613 -6.009,-12.928 -18.121,-21.070 -32.570,-20.940l-12.705,1.094 0.037,86.543c6.213,0.575 12.279,0.909 18.381,0.167 20.755,-2.560 30.956,-22.220 31.308,-42.270Z"/>
  <path d="M990.470,1511.350c-12.668,3.765 -27.172,-0.427 -33.701,-11.277l-21.515,-35.723 -6.584,0.297 0.037,46.406h-21.905s-0.130,-88.639 -0.130,-88.639c0.000,-6.547 -4.934,-10.739 -11.166,-10.164v-5.416s43.958,0.037 43.958,0.037c13.855,0.000 28.879,2.022 37.633,12.816 5.750,9.292 5.935,21.534 -0.297,30.678 -4.414,6.473 -11.574,9.738 -19.494,11.296l13.262,22.202 10.294,16.062c3.042,2.968 5.917,4.952 10.071,6.139l-0.501,5.323ZM954.729,1448.139c3.672,-4.915 3.654,-10.646 3.394,-16.211 -0.334,-7.716 -4.730,-13.818 -12.297,-16.136 -6.492,-1.985 -17.157,-2.411 -17.157,2.040v38.598s8.940,0.000 8.940,0.000c6.510,0.000 13.150,-2.968 17.138,-8.309Z"/>
  <path d="M678.053,1460.677h-39.581s0.037,41.547 0.037,41.547h26.876c5.101,-0.019 9.923,-1.558 14.059,-4.247 4.340,-3.710 6.677,-7.994 8.588,-13.688l5.620,1.410 -5.286,17.880c-1.929,4.155 -5.694,7.308 -10.869,7.326l-61.077,0.167v-88.064c-0.037,-6.733 -4.414,-11.184 -11.574,-10.702l-0.148,-5.490h68.404c7.438,0.019 14.282,2.226 14.467,8.959l0.464,17.583 -5.601,-0.037c-0.519,-4.563 -1.150,-7.846 -2.912,-11.555 -3.097,-3.747 -7.308,-5.583 -12.223,-6.121l-28.823,-0.056v36.947s39.599,0.037 39.599,0.037l-0.037,8.105Z"/>
  <path d="M801.377,1510.904c-15.116,2.300 -29.546,-0.148 -37.930,-12.650l-19.382,-28.953 -31.401,41.806 -12.371,-0.241 37.893,-50.320 -23.945,-35.370 -8.550,-10.238c-2.634,-1.799 -5.230,-2.745 -8.439,-3.116v-4.989s15.339,0.056 15.339,0.056c8.996,0.111 16.767,4.080 22.461,11.147l17.546,25.707 28.508,-36.947 12.130,0.148 -34.703,45.349 29.231,43.531c3.283,4.878 7.271,8.254 13.280,9.682l0.315,5.379Z"/>
  <path d="M272.471,1471.416c-0.019,13.484 -5.824,27.970 -16.841,35.111 -5.657,3.654 -12.056,5.230 -18.678,6.047 -3.172,0.390 -6.102,0.093 -9.292,-0.056 -11.017,-0.482 -21.645,-4.043 -29.398,-12.149 -8.235,-8.588 -10.554,-21.719 -10.572,-33.794l-0.093,-40.471c0.000,-2.189 -0.390,-4.748 -0.779,-6.770 -0.983,-4.878 -4.804,-7.475 -10.034,-6.900l-0.167,-5.657 22.035,0.148c7.363,0.056 10.628,6.102 10.646,13.799l0.148,46.480c0.037,13.503 3.005,28.508 15.766,34.016 9.626,4.155 21.868,2.244 28.971,-5.713 5.564,-6.232 8.513,-14.690 8.550,-23.166l0.297,-65.473 9.552,-0.056 -0.130,64.602Z"/>
  <path d="M1098.399,1510.960c-13.095,2.281 -30.196,-0.927 -35.612,-12.761l-7.456,-16.266h-40.230s-12.371,29.101 -12.371,29.101l-10.424,-0.074 44.477,-103.904 9.923,-0.185 28.063,65.251 8.662,19.790c2.819,6.455 7.809,12.075 14.857,13.466l0.093,5.601ZM1051.585,1473.383l-16.229,-38.468 -16.878,38.431 33.108,0.037Z"/>
  <path d="M835.671,1415.829l-13.243,-0.148c-4.859,-0.056 -9.608,2.727 -11.871,6.937 -1.799,3.357 -2.356,6.566 -3.116,10.628l-5.268,0.093 0.130,-16.341c0.056,-6.807 5.379,-10.146 12.445,-10.164l75.100,-0.056 0.111,8.792 -32.199,0.037v95.409s-22.146,0.056 -22.146,0.056l0.037,-95.242Z"/>
  <path d="M117.691,1415.848c-9.775,-0.742 -22.164,-1.131 -25.837,7.493 -1.391,3.264 -1.725,6.251 -2.374,10.016l-5.305,-0.056 0.167,-16.841c0.019,-2.615 1.410,-6.306 3.802,-7.567 2.875,-1.521 6.288,-2.077 9.700,-2.077h74.321s0.037,8.773 0.037,8.773h-32.496s0.000,95.446 0.000,95.446l-22.035,0.037v-95.224Z"/>
  <path d="M1178.599,1415.829l-12.891,-0.074c-4.414,-0.019 -9.107,2.244 -11.704,5.731s-2.968,7.401 -3.654,11.796l-5.249,0.037 0.223,-16.600c0.074,-5.601 4.377,-9.756 10.350,-9.756l76.824,-0.130 0.111,8.773 -32.125,0.037v95.391s-21.923,0.000 -21.923,0.000l0.037,-95.224Z"/>
  <path d="M1139.853,1511.071h-21.385c-8.180,0.000 -12.037,-5.898 -12.316,-14.337l0.093,-89.919h21.812s0.000,87.972 0.000,87.972c0.278,6.566 4.526,10.665 11.629,10.294l0.148,5.991Z"/>
  <path d="M445.150,1511.127l-22.239,-0.111c-7.234,-0.037 -11.296,-6.622 -11.221,-14.282l0.074,-89.901h21.719s0.000,86.543 0.000,86.543c0.278,2.856 0.631,5.917 2.244,8.031 2.189,2.856 5.527,3.524 9.292,3.951l0.111,5.768Z"/>
</svg>
