<?xml version="1.0" encoding="UTF-8"?>
<svg version="1.1" xmlns="http://www.w3.org/2000/svg" width="1246" height="1643">
<path d="M1034.27,1498.96l17.09-.22-21.45,66.95c-1.03,3.23-1.05,9.72,2.23,10.97,10.55-1.73,28.75-29.41,32.55-39.44l14.53-38.3,16.84-.07-23.62,72.73c-3.45,10.6,15.21.37,26.61-21.61-.2,9.2-3.63,16.91-.37,25.06,3.26,8.15,20.71,8.24,26.88-1.62,3.15-5.03,4.11-12.1.15-17.15l-11.69-14.92c-7.67-9.79-7.39-22.04.2-32.03,11.8-15.51,35.83-14.49,40.05-5.94,1.48,2.99,2.43,6.86-.35,9.96-1.81-7.65-6.03-10.53-12.61-10.79s-11.19,1.51-14.62,6.36c-3.15,4.44-4.11,11.16-.33,15.97l14.01,17.9c8.7,11.1,7.06,25.41-3.71,34.21-13.98,11.4-36.82,10.42-42.69,2.99-2.91-3.71-1.75-7.74-2.29-13.76-7.23,11.93-22.66,24.06-31.61,15.71-3.04-2.84-4.41-7.03-3.3-11.8l4.22-18.51c-8.61,13.81-21.56,33.36-36.25,33.69-7.3.17-11.69-5.05-11.51-12.34.2-7.8,2.07-15.05,4.44-22.44l16.61-51.61v.04l-.04.02Z"/>
  <path d="M1177.57,1574.53c10.88,10.27,35.77-2.69,49.6-20.78,1.31-1.7,2.66-3.95,5.44-2.99-13.61,24.95-42.95,43.06-68.17,31.22-21.63-10.12-9.16-50.12,17.3-73.55,9.2-8.19,20.97-11.6,33.02-10.44,8.15.79,13.15,7.84,11.67,15.84-4.04,21.98-29.63,34.35-52.63,37.56-3.3,7.3-2.49,17.26,3.74,23.14h.02ZM1173.58,1549.03c28.43-4.06,47.08-39.31,38.91-45.2-11.62-8.35-34.43,24.43-38.91,45.2h0Z"/>
  <g>
    <path d="M685.77,1549.56c-8.67,23.97-37.65,41.82-63.27,33.98-9.16-2.8-13.48-10.82-15.53-19.47-9.57,15.34-28.73,27.03-37.99,18.79-2.9-2.58-4.81-8.17-3.32-12.61l17.13-51.37c1.48-4.43,2.67-8.48,2.42-13.22-6.55,2.19-10.88,6.45-15.3,11.51-16.84,19.2-27.83,41.78-34.3,66.71-5.7.66-11.1.98-17.17-1.05l17.22-56.59c2.12-6.93,5.4-13.15,4.78-21.13-9.42,3.41-15.18,10.38-20.93,17.87-13.81,17.98-22.94,38.74-29.12,60.96-4.96.76-10.31.72-15.3-.46l7.39-32.05c-10.16,15.21-26.41,39.92-40.97,31.88-5.35-2.95-5.77-10.12-4.78-15.62,1.27-7.12,5.35-12.61,4.96-20.3-9.33,17.3-27.18,44.01-44.25,36.47-12.96-5.73-.11-38.59,6.03-57.68l7.47-23.25-22.35.94-15.12,45.58c-6.75,20.38-15.88,39.63-29.3,56.18-19.64,24.23-50.47,41.54-81.08,35.4-7.03-1.4-13.98-4.08-17.79-10.79,26.83,13.18,55.71,7.97,75.75-14.03,12.3-13.5,21.98-28.91,27.57-46.61l20.98-66.33c-4.11-.18-6.58,0-9.31-2.29,2.43-2.89,6.07-2.78,10.82-1.92,12.56-36.09,27.42-88.32,70.7-84.32,6.51.59,13.66,2.34,17.11,8.06-22.98-8.13-35.79-.04-46.67,20.91-9.11,17.55-15.95,35.64-21.7,55.04h39.31l-17.39,53.18c-2.58,7.87-5.03,15.51-4.37,24.17,5.53.92,9.88-2.73,13.48-6.82,17.79-20.28,28.8-44.77,36.88-70.4l16.32.04-15.25,45.42c-4.19,12.47-10.38,30.78-5.46,31.49,5.75.85,14.88-11.49,20.95-20.38,11.75-17.2,19.03-36.33,24.76-56.46l15.36-.04-11.32,39.57c7.54-11.52,14.57-21.68,24.06-31.24,9.5-9.57,21.22-12.93,26.98-7.03,7.14,7.34-2.66,24.17-4.57,36.95,11.03-15.62,23.57-37.21,40.86-39.5,3.41-.44,7.56.53,9.55,2.97,1.79,2.23,3.1,6.53,1.95,9.88l-10.95,32.45c-4.17,12.34-12.67,30.94-6.64,33.73,3.21,1.48,15.71-10.07,22.18-18.61,3.23-29.78,32.21-64.56,61.27-60.09,7.6,1.16,11.84,7.14,10.75,14.7-3.17,22.07-30.37,35.24-52.24,38.45-1.59,7.06-1.09,13.96,2.58,19.67,3.93,6.12,11.69,7.43,18.59,6.01,16.13-3.34,25.85-14.47,37.6-27.33h-.04,0ZM628.03,1548.21c20.21-4.48,33.6-18.4,38.81-35.31.13-3.95.09-7.76-2.93-9.37-10.29-5.42-33.41,26.55-35.88,44.66h0v.02Z"/>
    <path d="M702.9,1605.84c-8-21.22,9.07-40.53,28.34-52.63,33.73-21.19,71.47-33.15,110.91-38.58l23.33-64.17c4.43-12.13,9.92-22.63,18.72-33.82l-25.34-1.09c-36.95-1.57-83.11,15.06-99.79,50.43-9.24,19.6-7.19,43.35,10.42,55.3-20.1-2.58-32.25-21.54-29.8-40.97,1.83-14.53,9.99-25.7,20.63-35.62,42.45-39.68,101.53-36.92,158.58-32.1-8.46,3.96-15.19,5.44-19.27,13.11-7.8,11.86-12.7,25.11-17.44,38.63l-16.74,48.55,52.22-1.66c7.14-21.94,13.94-42.72,23.97-63.19,12.5-26.66,42.19-59.14,71.56-52.02-11.73,2.93-20.67,7.25-28.25,15.36-23.55,26.77-35.5,64.28-46.56,98.26l9.37-1.03c-2.8,3.49-6.18,4.13-10.71,5.2l-14.97,49.29c-4.61,15.16-5.97,32.66,6.56,32.93,2.05.04,4-.31,4.94,2.01-11.05,3.06-26.37,3.15-31.97-2.54-11.52-11.69,7.63-55.39,14.4-79.18l-52.13,1.57c-5.66,15.43-11.32,30.37-19.55,44.83-24.27,43.24-70.05,75.99-119.89,62.05-9.51-2.66-18.11-9.68-21.56-18.85v-.06l.02-.02ZM788.68,1609.27c27.03-21.32,41.32-56,51.96-89.67-37.65,4.3-94.02,21.5-117.26,49.73-8.45,10.27-12.04,24.01-6.34,36.18,10.73,22.98,49.57,21.26,71.64,3.72h0v.04Z"/>
    <path d="M206.36,1403.78c-26.9,8.48-40.51,41.69-50.03,69l-16.8,48.26c50.39,9.98,98.45-31.18,103.06-79.6,1.81-18.99-8.08-34.41-24.78-41.56-25.93-11.1-60.74-9.28-89.08-3.91-25.21,4.78-48.16,14.33-69.02,29.34-23.16,16.69-44.03,45.8-35.62,74.05,3.34,11.17,10.97,18.61,22.26,21.76,21.61,5.99,43.87-5.51,52.74-25.93.68,7.38-3.63,12.65-8.37,17.44-17.83,18.09-46.54,22.94-68.59,10.29-16.98-9.74-23.2-28.16-17.63-46.15,12.13-39.28,57.33-65.42,95.63-78.46,28.32-9.63,57.7-11.65,87.68-10.75,21.15.66,40.95,5.85,57.9,18.03,24.91,17.9,21.81,49.25,3.1,74.13-25.83,34.35-68.48,51.58-111.28,46.1-18.33,50.1-54.45,93.8-111.13,79.79-4.98-2.6-10.53-3.1-12.8-9.29,20.98,10.64,44.49,8.72,62.82-5.83,13.33-10.58,23.64-24.17,29.52-40.59l25.54-71.27c5.11-14.27,11.08-27.25,18.77-40.16,10.38-17.44,25.93-30.74,45.69-35.72,3.49-.89,7.19-1.73,10.44.96v.07Z"/>
    <path d="M246.08,1506.54c12.83-9.33,33.58-12.82,39.79-4.06,2.49,3.5,3.78,7.74,2.32,12.28-6.97,21.72-30.89,32.14-53.36,36.4-2.07,6.01-1.94,12.34.39,18.07,5.85,14.33,26.33,8.78,42.36-7.5,9.07-9.2,15.1-19.32,18.68-31.97l8.65-30.54c5.72-1.05,10.58-.72,16.47-.33l-11.34,39.66c11.25-15.49,22.05-38.81,39.41-42.72,2.01-.44,4.08.09,4.9,1.35.77,1.18.96,3.45.02,5.09l-7.91,14.09c-1.33-2.58-4.09-5.99-6.73-5.16-17.79,5.48-37.25,50.52-42.65,72.78-5.68.74-11.01.57-16.5-1.12l5.75-24.45c-13.63,17.17-28.51,28.64-50.36,26.77-14.6-1.25-24.06-14.36-21.24-29.1,3.74-19.66,15.19-37.78,31.37-49.53h0ZM276.21,1508.59c-.11-2.45-1.42-4.2-2.78-5s-3.13-.9-5.05-.39c-15.73,5.85-28.67,27.36-33.17,45.03,20.03-4.43,39.81-20.28,41.01-39.64h0Z"/>
    <path d="M953.69,1584.12c-23.49-6.21-14.44-56.18,19.95-80.12,9-6.27,20.34-8.22,30.43-4.33,19.53,7.56,11.34,51.46-11.36,73.46-10.47,10.14-24.43,14.84-39.02,10.99h0ZM993.71,1503.33c-7.25-.89-12.74,5.88-16.43,11.01-11.14,15.54-18.9,32.27-19.86,51.69-.2,4.33-.09,10.44,3.65,12.93,21.65,14.46,51-73.41,32.64-75.62Z"/>
    <path d="M661.19,1354.58c-5.07,10.49-19.58,17.59-24.69,12.24-1.46-1.53-3.25-5.64-2.3-8.67l12.58-41.19c-3.17-.9-5.64.68-7.67,2.58-13.92,13.06-22.86,29.47-27.51,48-3.8.61-6.95.57-11.14-.06l27.44-90.41c-3.87-.22-7.19,1.05-9.35-2.36l22.55-2.38-20.93,65.11c9.15-13.68,26.31-33.67,36.92-25.56,2.45,1.9,1.49,7.87.57,10.69l-12.21,37.08c-.46,1.4.15,3.61.94,4.04,1.03.55,2.62.06,3.8-.83l11.01-8.3h-.02.02Z"/>
    <path d="M560.03,1358.47c-1.81,5.96,4.2,5.68,9.79,9.59-12.15-1.7-23.12-.44-36.18-.7,7.52-2.93,11.64-3.67,13.76-10.62l22.61-74.14c-17.46-1.07-27.92.09-33.58,15.49-.65-6.86,2.36-12.34,3.84-18.77l70.31.2-6.66,19.9c-1.09-4.67,1.4-10.64-2.1-13.96-4.65-4.43-12.58-3.6-18.79-2.29l-22.98,75.31s-.02,0-.02,0Z"/>
    <path d="M682.17,1362.88c11.54,3.8,19.55-5.27,27.92-13.13-4.81,14.27-22.7,22.61-37.8,16.82-15.08-5.81-8.59-34.76,12.19-50.84,6.53-5.05,16.61-8.09,23.73-3.19,6.21,4.28,3.23,13.7-1.31,18.62-7.65,8.3-18.48,10.9-28.88,15.18-3.87,2.54-1.44,14.68,4.17,16.52h-.02v.02ZM677.56,1343.55c19.45-3.93,30.92-25.37,24.06-29.24-3.95-2.23-13.65,5.96-17.22,13.94l-6.84,15.3h0Z"/>
    <path d="M916.37,1338.95c-4.3,3.02-9.42,2.43-15.45,2.43h-161.29c1.16-2.71,4.35-3.61,7.38-3.6l103.35.35,65.99.79h.02v.02Z"/>
    <path d="M501.08,1341.42h-167.02c-4.72-.02-8.26.55-11.64-2.78l42.6-.39,120.96-.33,17.68.72c.17.68-.85,2.8-2.58,2.8h.02l-.02-.02Z"/>
  </g>

</svg>
