<?xml version="1.0" encoding="UTF-8"?>
<svg version="1.1" xmlns="http://www.w3.org/2000/svg" width="1246" height="1643">
  <path d="M-0.830,1594.945l-0.240,-2.441 3.514,0.203c2.848,8.303 6.103,16.108 11.022,23.209 11.151,16.108 30.847,22.969 49.488,16.607 11.484,-3.921 18.937,-14.258 19.732,-26.279 0.758,-11.466 -4.494,-21.508 -14.129,-27.814 -22.155,-14.462 -53.186,-19.177 -63.524,-43.718 -4.605,-10.929 -4.198,-23.449 0.888,-34.157 4.494,-9.432 12.409,-15.978 21.877,-20.010 20.084,-7.934 43.274,-3.902 63.284,3.421l1.979,33.177 -3.033,0.203c-2.977,-8.303 -6.621,-15.904 -12.316,-22.636 -8.303,-9.820 -20.971,-13.851 -33.732,-12.187 -10.356,1.350 -19.362,7.268 -23.227,17.180 -3.033,7.767 -2.404,17.069 2.053,24.208 3.088,4.956 7.823,8.544 12.816,11.484 15.405,9.080 30.329,13.629 45.086,22.821 13.038,8.119 20.121,21.415 20.065,36.801 -0.074,17.106 -8.840,32.363 -24.429,39.834 -11.910,5.714 -21.729,6.214 -34.971,5.529 -13.740,-0.703 -26.519,-4.309 -39.446,-9.413l-1.794,-22.876 -0.462,-7.453 -0.518,-5.677h0.000Z"/>
  <path d="M1232.555,1620.392l0.055,1.979c-6.454,12.353 -18.956,19.547 -33.140,18.826 -9.173,-0.462 -17.753,-3.921 -22.321,-12.242 -2.571,-4.697 -3.976,-10.264 -3.976,-15.997l-0.074,-77.301h-13.851l-0.222,-3.403c13.001,-7.564 25.040,-17.254 29.848,-31.882h4.105v27.333h36.616l0.037,7.693 -36.709,-0.037v72.031c0.000,9.395 2.534,18.900 11.503,21.156 9.801,2.460 19.566,-1.516 25.502,-9.672l2.626,1.516h0.000Z"/>
  <path d="M307.452,1617.045c-5.751,-10.634 -7.601,-21.933 -7.342,-33.880 0.314,-14.758 4.716,-28.979 14.462,-40.278 12.187,-14.166 30.810,-20.361 49.229,-17.994 6.510,0.832 11.984,3.033 17.624,6.805l-0.111,-40.001c0.000,-5.455 -3.088,-9.339 -7.564,-11.817l-1.979,-1.091c-0.481,-0.259 -0.074,-2.219 0.296,-2.700L401.582,1467.083l0.055,148.445c0.000,6.547 3.699,10.689 9.228,13.445l1.868,0.943c0.444,0.222 0.296,1.757 0.222,2.626l-28.701,8.692 -2.552,-18.549c-7.915,12.816 -20.546,18.808 -34.860,18.512 -16.773,-0.351 -31.253,-9.099 -39.372,-24.134h0.000ZM356.533,1629.324c10.929,-0.314 19.455,-5.844 24.855,-15.016l-0.203,-56.756c-0.037,-8.248 -4.161,-16.736 -10.560,-21.656 -12.021,-9.265 -28.849,-5.899 -37.837,5.936 -11.318,14.906 -12.686,37.134 -9.284,55.332 3.218,17.180 13.999,32.714 33.010,32.160h0.000Z"/>
  <path d="M703.668,1559.290l-31.660,-0.148v72.845l42.090,-0.259c9.561,-0.055 17.901,-4.013 24.097,-10.874 5.603,-6.084 9.505,-12.908 12.335,-20.860l3.440,-0.111 -4.901,37.708h-109.239c-0.721,-0.092 -0.370,-2.682 0.314,-2.996 9.006,-4.032 10.356,-13.833 10.356,-24.134l-0.037,-108.703c0.000,-9.635 -1.572,-16.311 -10.911,-19.436l0.222,-2.700h103.155l4.216,32.751c-0.518,0.943 -2.349,1.442 -3.366,0.999 -2.866,-8.692 -7.323,-15.775 -14.055,-21.692 -5.345,-4.032 -11.743,-6.547 -18.715,-6.565l-38.965,-0.055v68.573l31.161,-0.129c4.845,0.000 9.080,-2.460 12.224,-5.714 3.144,-4.346 5.104,-8.729 6.676,-14.073 0.684,-0.074 2.164,0.074 3.384,0.314v43.052c-0.629,0.536 -2.811,0.647 -3.366,0.222l-3.606,-9.025c-3.255,-5.067 -8.155,-8.932 -14.832,-8.951v-0.037h0.000Z"/>
  <path d="M281.136,1614.899c0.000,11.873 11.466,13.851 11.355,14.776l-0.259,2.404 -28.646,9.025 -2.423,-19.473c-8.877,11.558 -18.456,19.177 -33.584,19.510s-27.814,-5.474 -32.770,-19.196c-1.812,-5.012 -2.922,-10.245 -2.959,-15.812l-0.277,-61.934c-0.018,-5.086 -3.033,-9.432 -7.434,-10.966 -1.147,-0.407 -2.182,-0.851 -2.552,-1.442s0.370,-2.774 0.758,-2.700l29.663,-3.810 0.055,77.708c0.000,12.483 5.345,23.061 17.716,25.151 12.575,2.108 22.876,-4.198 30.847,-14.018l-0.074,-67.611c0.000,-5.844 -2.552,-11.188 -7.693,-13.260l-2.367,-0.962c-0.666,-0.277 -0.203,-2.737 0.351,-3.033l30.107,-4.105 0.148,89.747h0.037 0.000Z"/>
  <path d="M525.079,1641.160c-23.079,-0.481 -43.773,-14.721 -51.411,-36.284 -5.363,-15.090 -4.716,-31.845 1.184,-46.473 4.253,-10.560 11.207,-18.530 20.435,-24.670 23.579,-15.682 56.515,-11.336 74.472,10.282 7.582,9.117 11.392,19.899 12.668,31.660 3.773,35.156 -20.195,66.243 -57.329,65.484h-0.018ZM523.877,1635.334c11.392,1.128 21.286,-3.754 27.185,-13.056 9.820,-15.479 10.689,-39.076 7.490,-57.181 -2.996,-16.977 -11.836,-33.436 -29.793,-34.749s-29.275,11.540 -33.565,28.738c-3.736,14.979 -3.828,30.292 -0.333,45.290s12.224,29.275 29.034,30.939h-0.018Z"/>
  <path d="M1072.681,1623.776c-11.762,17.827 -38.947,23.394 -54.314,10.356 -11.540,-9.783 -11.096,-30.791 3.125,-41.073 6.972,-5.049 14.647,-8.951 23.098,-11.188l27.647,-7.286v-14.499c-0.037,-11.891 -4.642,-22.173 -16.588,-24.614 -16.200,-3.310 -31.586,5.049 -37.930,20.176l-3.884,-0.314c3.014,-18.271 19.399,-29.108 36.949,-30.773 7.767,-0.740 15.257,-0.351 22.377,2.608 8.636,3.588 15.127,10.264 17.606,19.325 1.073,3.958 2.127,8.119 2.127,12.390l0.129,62.377c0.000,2.386 1.886,4.956 3.162,6.251 3.514,3.551 8.877,1.590 13.463,-2.996l2.404,2.552c-6.436,11.558 -20.509,17.957 -31.642,11.225 -5.086,-3.070 -6.916,-8.599 -7.749,-14.554v0.037h0.000ZM1048.954,1629.435c9.616,0.092 18.068,-5.178 23.264,-13.112v-36.154l-18.678,5.123c-5.234,1.442 -9.820,4.475 -13.962,7.730 -6.066,4.919 -8.451,11.762 -8.137,19.381 0.407,9.764 7.231,16.921 17.532,17.014h-0.018Z"/>
  <path d="M862.099,1637.591l-41.147,-0.037c-2.626,-3.088 3.181,-3.662 3.995,-7.268 0.425,-1.942 0.092,-5.252 -1.110,-7.064l-21.304,-32.012 -16.977,23.912c-1.701,2.404 -2.755,5.308 -3.828,8.008 -2.127,10.615 7.360,10.190 5.640,14.462h-32.566c-0.129,-0.721 -0.370,-2.127 -0.037,-2.312l1.960,-1.054c5.992,-3.255 11.170,-7.730 15.312,-13.278l26.427,-35.414 -16.570,-24.411 -15.127,-22.192c-3.144,-3.810 -6.325,-6.713 -11.225,-8.414l0.647,-2.774 39.501,-0.037c0.647,0.037 1.683,1.849 1.368,2.312s-1.073,1.202 -1.757,1.609c-3.551,2.034 -4.697,6.713 -2.201,10.393l18.826,27.740 13.833,-19.695c2.127,-3.033 3.791,-6.417 5.104,-9.709 0.795,-4.642 -0.943,-8.340 -5.955,-9.265l0.481,-3.366h30.162c0.370,0.222 1.091,1.738 0.925,2.293 -0.314,1.147 -9.284,3.458 -17.587,14.480l-23.061,30.625 19.584,29.182 16.884,23.560c2.811,3.236 5.751,5.640 10.042,7.157l-0.203,2.626 -0.037,-0.055h0.000Z"/>
  <path d="M176.372,1619.190c1.165,-0.333 2.922,0.906 3.662,1.923 -6.399,13.463 -19.529,20.934 -34.305,20.065 -17.716,-1.054 -26.075,-12.890 -26.094,-30.292l-0.092,-75.267h-12.649c-0.832,0.000 -1.258,-2.866 -0.555,-3.329 13.056,-8.377 24.356,-16.588 29.478,-31.882 1.276,-0.296 3.199,-0.185 4.124,0.388v26.797l35.932,0.074v7.693h-36.191v73.233c0.018,9.099 2.977,17.716 11.651,19.899 9.432,2.386 18.845,-1.221 25.058,-9.339v0.037h-0.018Z"/>
  <path d="M930.912,1619.319c1.017,-0.314 2.737,0.814 3.384,1.720 -6.195,13.703 -19.307,20.971 -34.009,20.176 -18.327,-0.980 -26.149,-13.648 -26.149,-31.475v-74.065l-12.779,-0.037c-0.925,0.000 -1.202,-2.977 -0.518,-3.495 7.712,-4.438 14.277,-9.561 20.269,-15.960 4.013,-4.882 7.231,-9.672 9.099,-15.830l4.068,-0.037v27.388l35.951,-0.037 0.074,7.712h-36.062v72.604c0.000,8.414 2.645,17.624 10.171,20.102 9.727,3.199 20.102,-0.388 26.482,-8.784h0.018Z"/>
  <path d="M969.748,1625.071c0.388,4.993 4.068,8.414 8.747,9.801l-0.037,2.663h-38.891l0.037,-2.645c7.138,-3.144 8.544,-11.873 8.544,-20.065v-64.005c-0.240,-6.269 -3.107,-11.484 -9.062,-13.851l-0.943,-2.127c-0.259,-0.610 1.184,-1.442 1.942,-1.701l27.148,-9.413 1.091,26.075c5.677,-12.150 15.664,-25.447 31.272,-25.262l7.878,1.405 -3.310,22.007c-7.416,-5.881 -16.755,-7.508 -24.633,-2.737 -6.787,4.105 -10.671,11.780 -10.689,19.899l-0.129,47.250 0.999,12.668 0.037,0.037h0.000Z"/>
  <path d="M422.812,1637.554c-0.629,0.000 -0.869,-2.515 -0.444,-2.682 8.026,-3.218 8.451,-13.666 8.433,-23.135l-0.037,-62.599c0.000,-5.677 -3.736,-10.208 -8.618,-12.335 -0.555,-0.240 -1.387,-1.442 -1.405,-1.979 0.000,-0.684 1.147,-1.424 2.090,-1.720l28.498,-9.339 0.037,92.318c0.000,8.192 0.925,14.351 7.194,18.160l1.794,1.091c0.407,0.259 -0.222,2.219 -0.869,2.256h-36.709s0.037,-0.037 0.037,-0.037Z"/>
  <path d="M1115.974,1637.572c-0.980,-1.461 -0.203,-2.940 1.276,-3.162 5.918,-3.828 6.953,-13.001 6.953,-20.786v-63.302c0.000,-11.447 -10.282,-12.834 -10.116,-15.423 0.037,-0.684 1.276,-1.461 2.145,-1.738l28.313,-9.210 0.055,93.372c0.000,7.619 1.720,15.479 8.655,17.606v2.626h-37.301 0.000Z"/>
  <ellipse cx="440.510" cy="1493.991" rx="13.223" ry="13.167"/>
  <ellipse cx="1133.302" cy="1494.009" rx="13.204" ry="13.149"/>
</svg>
