<?xml version="1.0" encoding="UTF-8"?>
<svg id="Layer_1" xmlns="http://www.w3.org/2000/svg" version="1.1" viewBox="0 0 1374.02 200.64">
  <path d="M0.130,69.310l-0.130,-1.320 1.900,0.110c1.540,4.490 3.300,8.710 5.960,12.550 6.030,8.710 16.680,12.420 26.760,8.980 6.210,-2.120 10.240,-7.710 10.670,-14.210 0.410,-6.200 -2.430,-11.630 -7.640,-15.040 -11.980,-7.820 -28.760,-10.370 -34.350,-23.640 -2.490,-5.910 -2.270,-12.680 0.480,-18.470 2.430,-5.100 6.710,-8.640 11.830,-10.820 10.860,-4.290 23.400,-2.110 34.220,1.850l1.070,17.940 -1.640,0.110c-1.610,-4.490 -3.580,-8.600 -6.660,-12.240 -4.490,-5.310 -11.340,-7.490 -18.240,-6.590 -5.600,0.730 -10.470,3.930 -12.560,9.290 -1.640,4.200 -1.300,9.230 1.110,13.090 1.670,2.680 4.230,4.620 6.930,6.210 8.330,4.910 16.400,7.370 24.380,12.340 7.050,4.390 10.880,11.580 10.850,19.900 -0.040,9.250 -4.780,17.500 -13.210,21.540 -6.440,3.090 -11.750,3.360 -18.910,2.990 -7.430,-0.380 -14.340,-2.330 -21.330,-5.090l-0.970,-12.370 -0.250,-4.030 -0.280,-3.070h0.000Z"/>
  <path d="M667.070,83.070l0.030,1.070c-3.490,6.680 -10.250,10.570 -17.920,10.180 -4.960,-0.250 -9.600,-2.120 -12.070,-6.620 -1.390,-2.540 -2.150,-5.550 -2.150,-8.650l-0.040,-41.800h-7.490l-0.120,-1.840c7.030,-4.090 13.540,-9.330 16.140,-17.240h2.220v14.780h19.800l0.020,4.160 -19.850,-0.020v38.950c0.000,5.080 1.370,10.220 6.220,11.440 5.300,1.330 10.580,-0.820 13.790,-5.230l1.420,0.820h0.000Z"/>
  <path d="M166.830,81.260c-3.110,-5.750 -4.110,-11.860 -3.970,-18.320 0.170,-7.980 2.550,-15.670 7.820,-21.780 6.590,-7.660 16.660,-11.010 26.620,-9.730 3.520,0.450 6.480,1.640 9.530,3.680l-0.060,-21.630c0.000,-2.950 -1.670,-5.050 -4.090,-6.390l-1.070,-0.590c-0.260,-0.140 -0.040,-1.200 0.160,-1.460L217.730,0.170l0.030,80.270c0.000,3.540 2.000,5.780 4.990,7.270l1.010,0.510c0.240,0.120 0.160,0.950 0.120,1.420l-15.520,4.700 -1.380,-10.030c-4.280,6.930 -11.110,10.170 -18.850,10.010 -9.070,-0.190 -16.900,-4.920 -21.290,-13.050h0.000ZM193.370,87.900c5.910,-0.170 10.520,-3.160 13.440,-8.120l-0.110,-30.690c-0.020,-4.460 -2.250,-9.050 -5.710,-11.710 -6.500,-5.010 -15.600,-3.190 -20.460,3.210 -6.120,8.060 -6.860,20.080 -5.020,29.920 1.740,9.290 7.570,17.690 17.850,17.390h0.000Z"/>
  <path d="M381.080,50.030l-17.120,-0.080v39.390l22.760,-0.140c5.170,-0.030 9.680,-2.170 13.030,-5.880 3.030,-3.290 5.140,-6.980 6.670,-11.280l1.860,-0.060 -2.650,20.390h-59.070c-0.390,-0.050 -0.200,-1.450 0.170,-1.620 4.870,-2.180 5.600,-7.480 5.600,-13.050l-0.020,-58.780c0.000,-5.210 -0.850,-8.820 -5.900,-10.510l0.120,-1.460h55.780l2.280,17.710c-0.280,0.510 -1.270,0.780 -1.820,0.540 -1.550,-4.700 -3.960,-8.530 -7.600,-11.730 -2.890,-2.180 -6.350,-3.540 -10.120,-3.550l-21.070,-0.030v37.080l16.850,-0.070c2.620,0.000 4.910,-1.330 6.610,-3.090 1.700,-2.350 2.760,-4.720 3.610,-7.610 0.370,-0.040 1.170,0.040 1.830,0.170v23.280c-0.340,0.290 -1.520,0.350 -1.820,0.120l-1.950,-4.880c-1.760,-2.740 -4.410,-4.830 -8.020,-4.840v-0.020h0.000Z"/>
  <path d="M152.600,80.100c0.000,6.420 6.200,7.490 6.140,7.990l-0.140,1.300 -15.490,4.880 -1.310,-10.530c-4.800,6.250 -9.980,10.370 -18.160,10.550s-15.040,-2.960 -17.720,-10.380c-0.980,-2.710 -1.580,-5.540 -1.600,-8.550l-0.150,-33.490c-0.010,-2.750 -1.640,-5.100 -4.020,-5.930 -0.620,-0.220 -1.180,-0.460 -1.380,-0.780s0.200,-1.500 0.410,-1.460l16.040,-2.060 0.030,42.020c0.000,6.750 2.890,12.470 9.580,13.600 6.800,1.140 12.370,-2.270 16.680,-7.580l-0.040,-36.560c0.000,-3.160 -1.380,-6.050 -4.160,-7.170l-1.280,-0.520c-0.360,-0.150 -0.110,-1.480 0.190,-1.640l16.280,-2.220 0.080,48.530h0.020 0.000Z"/>
  <path d="M284.510,94.300c-12.480,-0.260 -23.670,-7.960 -27.800,-19.620 -2.900,-8.160 -2.550,-17.220 0.640,-25.130 2.300,-5.710 6.060,-10.020 11.050,-13.340 12.750,-8.480 30.560,-6.130 40.270,5.560 4.100,4.930 6.160,10.760 6.850,17.120 2.040,19.010 -10.920,35.820 -31.000,35.410h-0.010ZM283.860,91.150c6.160,0.610 11.510,-2.030 14.700,-7.060 5.310,-8.370 5.780,-21.130 4.050,-30.920 -1.620,-9.180 -6.400,-18.080 -16.110,-18.790s-15.830,6.240 -18.150,15.540c-2.020,8.100 -2.070,16.380 -0.180,24.490s6.610,15.830 15.700,16.730h-0.010Z"/>
  <path d="M580.620,84.900c-6.360,9.640 -21.060,12.650 -29.370,5.600 -6.240,-5.290 -6.000,-16.650 1.690,-22.210 3.770,-2.730 7.920,-4.840 12.490,-6.050l14.950,-3.940v-7.840c-0.020,-6.430 -2.510,-11.990 -8.970,-13.310 -8.760,-1.790 -17.080,2.730 -20.510,10.910l-2.100,-0.170c1.630,-9.880 10.490,-15.740 19.980,-16.640 4.200,-0.400 8.250,-0.190 12.100,1.410 4.670,1.940 8.180,5.550 9.520,10.450 0.580,2.140 1.150,4.390 1.150,6.700l0.070,33.730c0.000,1.290 1.020,2.680 1.710,3.380 1.900,1.920 4.800,0.860 7.280,-1.620l1.300,1.380c-3.480,6.250 -11.090,9.710 -17.110,6.070 -2.750,-1.660 -3.740,-4.650 -4.190,-7.870v0.020h0.000ZM567.790,87.960c5.200,0.050 9.770,-2.800 12.580,-7.090v-19.550l-10.100,2.770c-2.830,0.780 -5.310,2.420 -7.550,4.180 -3.280,2.660 -4.570,6.360 -4.400,10.480 0.220,5.280 3.910,9.150 9.480,9.200h-0.010Z"/>
  <path d="M466.750,92.370l-22.250,-0.020c-1.420,-1.670 1.720,-1.980 2.160,-3.930 0.230,-1.050 0.050,-2.840 -0.600,-3.820l-11.520,-17.310 -9.180,12.930c-0.920,1.300 -1.490,2.870 -2.070,4.330 -1.150,5.740 3.980,5.510 3.050,7.820h-17.610c-0.070,-0.390 -0.200,-1.150 -0.020,-1.250l1.060,-0.570c3.240,-1.760 6.040,-4.180 8.280,-7.180l14.290,-19.150 -8.960,-13.200 -8.180,-12.000c-1.700,-2.060 -3.420,-3.630 -6.070,-4.550l0.350,-1.500 21.360,-0.020c0.350,0.020 0.910,1.000 0.740,1.250s-0.580,0.650 -0.950,0.870c-1.920,1.100 -2.540,3.630 -1.190,5.620l10.180,15.000 7.480,-10.650c1.150,-1.640 2.050,-3.470 2.760,-5.250 0.430,-2.510 -0.510,-4.510 -3.220,-5.010l0.260,-1.820h16.310c0.200,0.120 0.590,0.940 0.500,1.240 -0.170,0.620 -5.020,1.870 -9.510,7.830l-12.470,16.560 10.590,15.780 9.130,12.740c1.520,1.750 3.110,3.050 5.430,3.870l-0.110,1.420 -0.020,-0.030h0.000Z"/>
  <path d="M95.950,82.420c0.630,-0.180 1.580,0.490 1.980,1.040 -3.460,7.280 -10.560,11.320 -18.550,10.850 -9.580,-0.570 -14.100,-6.970 -14.110,-16.380l-0.050,-40.700h-6.840c-0.450,0.000 -0.680,-1.550 -0.300,-1.800 7.060,-4.530 13.170,-8.970 15.940,-17.240 0.690,-0.160 1.730,-0.100 2.230,0.210v14.490l19.430,0.040v4.160h-19.570v39.600c0.010,4.920 1.610,9.580 6.300,10.760 5.100,1.290 10.190,-0.660 13.550,-5.050v0.020h-0.010Z"/>
  <path d="M503.960,82.490c0.550,-0.170 1.480,0.440 1.830,0.930 -3.350,7.410 -10.440,11.340 -18.390,10.910 -9.910,-0.530 -14.140,-7.380 -14.140,-17.020v-40.050l-6.910,-0.020c-0.500,0.000 -0.650,-1.610 -0.280,-1.890 4.170,-2.400 7.720,-5.170 10.960,-8.630 2.170,-2.640 3.910,-5.230 4.920,-8.560l2.200,-0.020v14.810l19.440,-0.020 0.040,4.170h-19.500v39.260c0.000,4.550 1.430,9.530 5.500,10.870 5.260,1.730 10.870,-0.210 14.320,-4.750h0.010Z"/>
  <path d="M524.960,85.600c0.210,2.700 2.200,4.550 4.730,5.300l-0.020,1.440h-21.030l0.020,-1.430c3.860,-1.700 4.620,-6.420 4.620,-10.850v-34.610c-0.130,-3.390 -1.680,-6.210 -4.900,-7.490l-0.510,-1.150c-0.140,-0.330 0.640,-0.780 1.050,-0.920l14.680,-5.090 0.590,14.100c3.070,-6.570 8.470,-13.760 16.910,-13.660l4.260,0.760 -1.790,11.900c-4.010,-3.180 -9.060,-4.060 -13.320,-1.480 -3.670,2.220 -5.770,6.370 -5.780,10.760l-0.070,25.550 0.540,6.850 0.020,0.020h0.000Z"/>
  <path d="M229.210,92.350c-0.340,0.000 -0.470,-1.360 -0.240,-1.450 4.340,-1.740 4.570,-7.390 4.560,-12.510l-0.020,-33.850c0.000,-3.070 -2.020,-5.520 -4.660,-6.670 -0.300,-0.130 -0.750,-0.780 -0.760,-1.070 0.000,-0.370 0.620,-0.770 1.130,-0.930l15.410,-5.050 0.020,49.920c0.000,4.430 0.500,7.760 3.890,9.820l0.970,0.590c0.220,0.140 -0.120,1.200 -0.470,1.220h-19.850s0.020,-0.020 0.020,-0.020Z"/>
  <path d="M604.030,92.360c-0.530,-0.790 -0.110,-1.590 0.690,-1.710 3.200,-2.070 3.760,-7.030 3.760,-11.240v-34.230c0.000,-6.190 -5.560,-6.940 -5.470,-8.340 0.020,-0.370 0.690,-0.790 1.160,-0.940l15.310,-4.980 0.030,50.490c0.000,4.120 0.930,8.370 4.680,9.520v1.420h-20.170 0.000Z"/>
  <ellipse cx="238.780" cy="14.720" rx="7.150" ry="7.120"/>
  <ellipse cx="613.400" cy="14.730" rx="7.140" ry="7.110"/>
</svg>
