<?xml version="1.0" encoding="UTF-8"?>
<svg id="Layer_1" xmlns="http://www.w3.org/2000/svg" version="1.1" viewBox="0 0 4498.88 1643">
  <!-- Generator: Adobe Illustrator 30.4.0, SVG Export Plug-In . SVG Version: 2.1.4 Build 226)  -->
  <path d="M1041.08,1498.66l17.23-.22-21.62,67.5c-1.04,3.25-1.06,9.8,2.25,11.06,10.63-1.75,28.98-29.65,32.81-39.76l14.65-38.61,16.97-.07-23.81,73.32c-3.48,10.69,15.34.37,26.82-21.79-.2,9.28-3.66,17.05-.37,25.26,3.29,8.22,20.88,8.31,27.1-1.64,3.18-5.07,4.15-12.19.15-17.29l-11.79-15.04c-7.73-9.87-7.45-22.21.2-32.29,11.9-15.63,36.12-14.61,40.38-5.99,1.49,3.01,2.45,6.92-.35,10.04-1.82-7.71-6.08-10.61-12.72-10.87-6.64-.26-11.28,1.52-14.74,6.41-3.18,4.48-4.15,11.25-.33,16.1l14.13,18.05c8.77,11.19,7.12,25.62-3.74,34.48-14.09,11.49-37.12,10.5-43.03,3.01-2.94-3.74-1.77-7.81-2.31-13.87-7.29,12.03-22.85,24.26-31.86,15.84-3.07-2.86-4.44-7.08-3.33-11.9l4.26-18.66c-8.68,13.92-21.73,33.63-36.55,33.96-7.36.17-11.79-5.09-11.6-12.44.2-7.86,2.08-15.17,4.48-22.62l16.75-52.03v.04l-.04.02Z"/>
  <path d="M1185.54,1574.84c10.97,10.35,36.06-2.71,50.01-20.95,1.32-1.71,2.68-3.98,5.48-3.01-13.72,25.15-43.29,43.41-68.72,31.47-21.81-10.21-9.24-50.53,17.44-74.15,9.28-8.25,21.14-11.69,33.29-10.52,8.22.8,13.25,7.9,11.77,15.97-4.07,22.16-29.87,34.63-53.05,37.87-3.33,7.36-2.51,17.4,3.77,23.33h.02ZM1181.52,1549.13c28.66-4.09,47.46-39.63,39.22-45.56-11.71-8.42-34.71,24.63-39.22,45.56h0Z"/>
  <g>
    <path d="M689.74,1549.67c-8.74,24.17-37.96,42.16-63.78,34.26-9.24-2.83-13.59-10.91-15.65-19.63-9.65,15.47-28.96,27.25-38.29,18.94-2.92-2.6-4.85-8.24-3.35-12.72l17.27-51.79c1.49-4.46,2.7-8.55,2.44-13.33-6.6,2.21-10.97,6.51-15.43,11.6-16.97,19.35-28.05,42.12-34.58,67.26-5.74.67-11.19.99-17.31-1.06l17.36-57.05c2.14-6.99,5.45-13.25,4.81-21.3-9.5,3.44-15.3,10.47-21.1,18.01-13.92,18.12-23.13,39.06-29.35,61.46-5,.76-10.39.72-15.43-.46l7.45-32.31c-10.24,15.34-26.62,40.25-41.31,32.14-5.39-2.97-5.82-10.21-4.81-15.75,1.28-7.18,5.39-12.72,5-20.47-9.41,17.44-27.4,44.37-44.61,36.77-13.07-5.78-.11-38.91,6.08-58.15l7.53-23.44-22.53.95-15.24,45.95c-6.8,20.54-16.01,39.95-29.54,56.64-19.8,24.43-50.88,41.88-81.74,35.69-7.08-1.41-14.09-4.11-17.94-10.87,27.05,13.29,56.16,8.03,76.36-14.15,12.4-13.61,22.16-29.15,27.79-46.99l21.15-66.87c-4.15-.19-6.64,0-9.39-2.31,2.45-2.92,6.12-2.81,10.91-1.93,12.66-36.38,27.64-89.04,71.27-85.01,6.56.59,13.77,2.36,17.25,8.12-23.16-8.2-36.08-.04-47.05,21.08-9.18,17.7-16.08,35.93-21.88,55.49h39.63l-17.53,53.61c-2.6,7.94-5.07,15.63-4.41,24.37,5.58.93,9.96-2.75,13.59-6.88,17.94-20.45,29.04-45.13,37.18-70.97l16.45.04-15.37,45.79c-4.22,12.57-10.47,31.03-5.5,31.75,5.8.86,15-11.58,21.12-20.54,11.84-17.34,19.18-36.62,24.97-56.92l15.48-.04-11.41,39.89c7.6-11.62,14.69-21.86,24.26-31.49,9.57-9.65,21.4-13.03,27.2-7.08,7.19,7.4-2.68,24.37-4.61,37.25,11.12-15.75,23.76-37.51,41.19-39.82,3.44-.45,7.62.54,9.63,2.99,1.8,2.25,3.12,6.58,1.97,9.96l-11.04,32.72c-4.2,12.44-12.77,31.19-6.69,34,3.23,1.49,15.84-10.15,22.36-18.76,3.25-30.02,32.48-65.08,61.77-60.58,7.66,1.17,11.93,7.19,10.84,14.82-3.2,22.25-30.62,35.52-52.66,38.76-1.6,7.12-1.1,14.07,2.6,19.83,3.96,6.17,11.79,7.49,18.74,6.06,16.27-3.36,26.06-14.59,37.9-27.55h-.04,0ZM631.54,1548.31c20.37-4.52,33.87-18.55,39.13-35.6.13-3.98.09-7.83-2.96-9.44-10.37-5.47-33.68,26.77-36.17,45.02h0v.02Z"/>
    <path d="M707.01,1606.4c-8.07-21.4,9.15-40.86,28.57-53.05,34-21.36,72.05-33.42,111.81-38.89l23.52-64.69c4.46-12.23,10-22.81,18.87-34.09l-25.54-1.1c-37.25-1.58-83.78,15.19-100.61,50.84-9.31,19.76-7.25,43.7,10.5,55.75-20.26-2.6-32.51-21.71-30.04-41.31,1.84-14.65,10.08-25.91,20.8-35.91,42.79-40,102.35-37.22,159.87-32.36-8.53,4-15.32,5.48-19.43,13.22-7.86,11.95-12.81,25.32-17.59,38.94l-16.88,48.95,52.64-1.67c7.19-22.12,14.05-43.07,24.17-63.71,12.6-26.88,42.53-59.62,72.15-52.44-11.82,2.96-20.84,7.31-28.48,15.48-23.74,26.99-35.78,64.8-46.94,99.06l9.44-1.04c-2.83,3.51-6.23,4.16-10.8,5.24l-15.09,49.69c-4.65,15.28-6.02,32.92,6.62,33.2,2.06.04,4.03-.32,4.98,2.03-11.13,3.09-26.58,3.18-32.23-2.57-11.62-11.79,7.7-55.84,14.52-79.82l-52.55,1.58c-5.71,15.56-11.41,30.62-19.7,45.19-24.46,43.59-70.62,76.61-120.87,62.55-9.59-2.68-18.25-9.76-21.73-19v-.06l.02-.02ZM793.49,1609.86c27.25-21.49,41.66-56.46,52.38-90.4-37.96,4.33-94.79,21.68-118.21,50.14-8.51,10.35-12.14,24.2-6.39,36.47,10.82,23.16,49.97,21.43,72.22,3.76h0v.04Z"/>
    <path d="M206.44,1402.7c-27.12,8.55-40.84,42.03-50.43,69.56l-16.93,48.65c50.8,10.06,99.25-31.43,103.9-80.25,1.82-19.15-8.14-34.69-24.98-41.9-26.14-11.19-61.23-9.35-89.8-3.94-25.41,4.81-48.56,14.44-69.58,29.58-23.35,16.82-44.39,46.18-35.91,74.65,3.36,11.27,11.06,18.76,22.44,21.94,21.79,6.04,44.22-5.56,53.17-26.14.69,7.44-3.66,12.75-8.44,17.59-17.98,18.24-46.92,23.13-69.15,10.37-17.12-9.82-23.39-28.39-17.77-46.53,12.23-39.6,57.79-65.95,96.4-79.1,28.55-9.7,58.17-11.75,88.39-10.84,21.32.67,41.29,5.89,58.37,18.18,25.11,18.05,21.99,49.65,3.12,74.73-26.04,34.63-69.04,51.99-112.19,46.47-18.48,50.51-54.89,94.56-112.04,80.44-5.02-2.62-10.61-3.12-12.9-9.37,21.15,10.73,44.86,8.79,63.33-5.87,13.44-10.67,23.83-24.37,29.76-40.92l25.75-71.85c5.15-14.39,11.17-27.48,18.92-40.49,10.47-17.59,26.14-30.99,46.06-36.01,3.51-.89,7.25-1.75,10.52.97v.07Z"/>
    <path d="M246.48,1506.3c12.94-9.41,33.85-12.92,40.12-4.09,2.51,3.53,3.81,7.81,2.34,12.38-7.03,21.9-31.14,32.4-53.8,36.7-2.08,6.06-1.95,12.44.39,18.22,5.89,14.44,26.55,8.85,42.7-7.57,9.15-9.28,15.22-19.48,18.83-32.23l8.72-30.78c5.76-1.06,10.67-.72,16.6-.33l-11.43,39.99c11.34-15.62,22.23-39.13,39.73-43.07,2.03-.45,4.11.09,4.94,1.36.78,1.19.97,3.48.02,5.13l-7.97,14.2c-1.34-2.6-4.13-6.04-6.79-5.21-17.94,5.52-37.55,50.93-43,73.37-5.73.74-11.1.58-16.64-1.13l5.8-24.65c-13.74,17.31-28.74,28.87-50.77,26.99-14.72-1.26-24.26-14.48-21.41-29.33,3.77-19.82,15.32-38.09,31.62-49.93h0ZM276.85,1508.36c-.11-2.47-1.43-4.24-2.81-5.04s-3.16-.91-5.09-.39c-15.86,5.89-28.91,27.59-33.44,45.4,20.19-4.46,40.13-20.45,41.34-39.97h0Z"/>
    <path d="M959.84,1584.51c-23.68-6.26-14.56-56.64,20.11-80.77,9.07-6.32,20.5-8.29,30.67-4.37,19.69,7.62,11.43,51.88-11.45,74.06-10.56,10.22-24.63,14.96-39.33,11.08h0ZM1000.18,1503.07c-7.31-.89-12.85,5.93-16.56,11.1-11.23,15.67-19.05,32.53-20.02,52.11-.2,4.37-.09,10.52,3.68,13.03,21.82,14.57,51.42-74,32.9-76.23Z"/>
    <path d="M664.96,1353.11c-5.11,10.58-19.74,17.73-24.89,12.34-1.47-1.54-3.27-5.69-2.32-8.74l12.68-41.53c-3.2-.91-5.69.69-7.73,2.6-14.03,13.16-23.05,29.71-27.74,48.39-3.83.61-7.01.58-11.23-.06l27.66-91.14c-3.9-.22-7.25,1.06-9.42-2.38l22.73-2.4-21.1,65.64c9.22-13.79,26.53-33.94,37.22-25.76,2.47,1.91,1.51,7.94.58,10.78l-12.31,37.38c-.46,1.41.15,3.64.95,4.07,1.04.56,2.64.06,3.83-.84l11.1-8.37h-.02.02Z"/>
    <path d="M562.98,1357.03c-1.82,6,4.24,5.73,9.87,9.67-12.25-1.71-23.31-.45-36.47-.71,7.58-2.96,11.73-3.7,13.87-10.71l22.79-74.75c-17.6-1.08-28.14.09-33.85,15.62-.65-6.92,2.38-12.44,3.87-18.92l70.88.2-6.71,20.06c-1.1-4.7,1.41-10.73-2.12-14.07-4.68-4.46-12.68-3.62-18.94-2.31l-23.16,75.92s-.02,0-.02,0Z"/>
    <path d="M686.12,1361.47c11.64,3.83,19.7-5.32,28.14-13.24-4.85,14.39-22.88,22.79-38.11,16.95-15.21-5.86-8.66-35.04,12.29-51.25,6.58-5.09,16.75-8.16,23.92-3.22,6.26,4.31,3.25,13.81-1.32,18.78-7.71,8.37-18.63,10.99-29.11,15.3-3.9,2.57-1.45,14.8,4.2,16.66h-.02v.02ZM681.47,1341.99c19.61-3.96,31.17-25.58,24.26-29.48-3.98-2.25-13.76,6-17.36,14.05l-6.9,15.43h0Z"/>
    <path d="M922.22,1337.34c-4.33,3.05-9.5,2.45-15.58,2.45h-162.6c1.17-2.73,4.39-3.64,7.44-3.62l104.19.35,66.53.8h.02v.02Z"/>
    <path d="M503.55,1339.83h-168.38c-4.76-.02-8.33.56-11.73-2.81l42.94-.39,121.95-.33,17.83.72c.17.69-.86,2.83-2.6,2.83h.02l-.02-.02Z"/>
  </g>
</svg>