<?xml version="1.0" encoding="utf-8" ?><svg xmlns="http://www.w3.org/2000/svg" xmlns:xlink="http://www.w3.org/1999/xlink" width="2213" height="434" viewBox="0 0 2213 434"><path transform="scale(1.57173 1.57246)" d="M1244.99 4.4782C1318.45 -4.90923 1385.66 46.9838 1395.24 120.505C1404.83 194.026 1353.19 261.453 1279.78 271.264C1206.07 281.115 1138.39 229.159 1128.76 155.338C1119.13 81.5165 1171.22 13.9039 1244.99 4.4782ZM1271.57 254.467C1336.01 249.176 1383.89 192.473 1378.37 127.98C1372.86 63.4874 1316.05 15.7566 1251.65 21.5077C1187.57 27.2299 1140.19 83.7555 1145.68 147.924C1151.16 212.092 1207.46 259.732 1271.57 254.467Z"/><path transform="scale(1.57173 1.57246)" d="M1221.32 62.0281C1230.39 61.7631 1300.24 61.1274 1303.4 62.3915C1304.75 62.9287 1305.8 64.041 1306.34 65.3762C1307.66 68.6353 1307.79 79.7742 1306.38 82.9988C1303.01 90.7102 1251.92 82.5809 1241.68 86.761C1240.68 90.4052 1237.66 118.935 1238.63 120.877C1271.69 106.105 1309.49 123.764 1316.01 160.45C1318.53 175.347 1315.1 190.64 1306.47 203.032C1296.79 216.888 1283.2 224.095 1266.87 227.001C1263.53 227.118 1259.83 227.863 1256.31 227.796C1234.3 227.38 1219.8 222.368 1204.28 207.267C1206.22 203.196 1214.07 187.128 1220.11 189.714C1223.32 191.09 1228.05 195.877 1231.46 198.055C1239.76 203.355 1254.39 205.167 1263.79 203.077C1270.9 201.567 1277.09 197.212 1280.93 191.023C1286.28 182.546 1287.23 171.43 1285.13 161.68C1280.14 138.575 1254.63 134.056 1236.43 145.131C1233.44 146.951 1227.06 152.997 1224.22 153.65C1219.48 152.668 1212.96 147.339 1208.85 144.316C1210.27 139.963 1211.01 130.632 1211.52 125.787C1212.86 113.143 1214.12 100.491 1215.31 87.8314C1215.95 80.9251 1216.45 73.4065 1217.58 66.5686C1217.99 64.1176 1219.25 63.3262 1221.32 62.0281Z"/><path transform="scale(1.57173 1.57246)" d="M775.009 72.3347C782.744 71.6912 792.946 71.7614 800.788 72.0255C833.796 73.1372 889.814 64.3502 907.81 100.327C913.698 112.209 914.72 125.923 910.659 138.548C905.516 154.017 893.16 165.16 877.987 170.594C874.155 171.967 870.492 172.875 866.823 174.718C885.267 197.453 902.998 222.246 920.961 245.488C922.517 247.502 925.294 252.562 923.47 254.743C917.747 257.045 897.643 256.081 890.448 256C885.774 253.759 838.61 186.312 832.639 178.153C823.437 178.106 814.235 178.129 805.034 178.222C805.022 188.88 805.898 247.725 804.071 253.598C803.502 254.388 802.283 255.691 801.217 255.706C770.935 256.132 772.953 261.371 772.944 232.726L772.936 194.003L772.942 118.027C772.945 104.804 772.84 91.3886 773.117 78.1593C773.167 75.7794 773.697 74.3005 775.009 72.3347ZM805.038 158.943C827.815 159.116 851.551 161.063 870.869 148.298C875.818 142.859 879.39 138.172 880.449 130.759C887.387 82.1819 832.079 92.151 805.039 91.0751L805.038 158.943Z"/><path transform="scale(1.57173 1.57246)" d="M176.45 72.2051C182.009 71.8738 197.994 70.8988 202.093 73.9217C203.74 80.985 202.975 97.1018 202.984 104.9L203.013 150.512C203.016 160.491 203.695 251.749 201.948 253.814C196.841 257.023 170.515 259.454 170.775 250.109C171.001 241.994 171.059 232.893 171.065 224.691L171.076 161.918L171.098 119.844C169.257 123.673 167.009 127.602 164.916 131.316C149.321 158.987 134.059 186.867 118.297 214.442C114.947 220.303 107.84 234.469 103.109 238.139C99.9783 238.393 97.4795 237.338 95.8168 234.601C79.1302 207.132 63.3952 179.046 46.9086 151.44C41.5723 142.504 35.8903 133.209 30.9895 124.082L30.936 221.816C30.8722 229.604 30.8177 237.336 31.342 245.127C31.658 249.824 30.8054 254.794 25.3927 255.862C22.1331 256.505 10.822 257.424 10.3821 252.622C9.84604 246.769 10.024 240.267 10.0234 234.342L10.0215 196.815L10.0352 118.778C10.0396 105.325 9.9611 91.7048 10.1691 78.2441C10.2059 75.8601 10.6204 74.3367 11.9571 72.3599C16.8027 71.7483 27.4276 71.5196 32.2879 72.5293C34.1219 72.9103 35.4165 74.1052 36.4276 75.6317C44.3309 87.5631 51.8239 100.718 59.1725 113.003C75.6017 140.254 91.8271 167.628 107.847 195.122C122.644 168.71 137.276 142.206 151.743 115.611C157.437 105.243 170.322 80.6282 176.45 72.2051Z"/><path transform="scale(1.57173 1.57246)" d="M341.128 72.3172C346.427 71.7684 352.08 72.018 357.395 72.3021C364.338 77.9004 379.078 95.0389 386.197 102.533L450.059 171.048C459.714 181.486 472.164 195.736 481.983 205.345L482.017 117.91C482.021 111.35 480.876 76.7788 483.536 73.5965C487.872 70.8581 497.294 70.8773 501.548 74.0807C502.804 75.0264 503.072 77.1085 503.081 78.6072C503.145 89.5597 503.104 100.52 503.105 111.475L503.103 178.38L503.092 227.349C503.09 235.278 503.171 243.494 502.964 251.432C502.921 253.068 501.391 254.738 500.313 255.944C497.597 256.056 494.879 256.129 492.161 256.162C484.218 256.218 475.968 244.605 470.601 238.714C463.55 230.984 456.455 223.296 449.315 215.649L394.421 157.874C383.422 146.264 372.264 133.631 361.012 122.511C361.012 164.279 360.587 206.157 361.385 247.894C361.588 258.521 345.391 257.793 340.822 254.765C337.892 251.669 338.951 235.24 338.951 230.233L338.959 184.583L338.983 112.923C338.981 101.056 338.922 88.9511 339.047 77.0721C339.066 75.2225 340.072 73.8019 341.128 72.3172Z"/><path transform="scale(1.57173 1.57246)" d="M1035.04 72.3406C1039.25 71.8478 1051.37 70.817 1053.64 74.7861C1057.77 81.9872 1061.02 90.2798 1064.35 97.9361C1070.71 112.333 1076.97 126.769 1083.15 141.245C1098.63 177.196 1115.43 213.91 1130.02 250.308C1130.57 251.686 1130.43 251.655 1130.13 253.06C1126.08 257.763 1097.83 257.637 1096.1 252.821C1089.34 234.032 1079.49 214.855 1073.25 196.095L1048.09 196.093L1000.46 196.209C991.811 211.189 982.702 239.308 973.96 255.863C967.826 256.119 957.136 257.881 953.139 252.797C957.794 240.676 965.018 226.002 970.53 213.848C981.011 190.48 991.615 167.168 1002.34 143.912L1023.54 97.2569C1026.67 90.3188 1031.48 78.7669 1035.04 72.3406ZM1008.41 177.979L1036.84 178.039L1065.16 178C1062.74 171.228 1039.37 114.823 1037.26 113.254C1029.58 130.871 1017.17 162.036 1008.41 177.979Z"/><path transform="scale(1.57173 1.57246)" d="M630.228 72.3291C634.427 72.0325 640.386 71.4081 644.44 72.5674C646.691 73.2113 647.419 74.0996 648.411 76.2544C653.224 86.7101 657.842 97.4735 662.462 108.017L687.886 165.999C699.654 193.194 712.022 220.139 723.53 247.444C724.594 249.967 725.437 254.57 721.866 255.295C714.419 256.805 700.259 256.439 692.947 255.179C689.913 254.656 682.657 234.663 681.33 231.394C676.532 219.616 671.644 207.875 666.666 196.173L638.516 196.095C624.176 196.303 609.834 196.338 595.493 196.199C585.972 212.502 579.56 234.466 570.546 251.461C566.9 258.336 549.139 257.925 547.572 252.475C550.099 244.986 557.603 229.792 561.121 222.145L587.746 164.137L615.771 102.415C618.92 95.4994 626.579 77.6397 630.228 72.3291ZM603.391 177.905C612.749 178.018 622.109 178.06 631.469 178.031L658.924 178.068C656.249 172.027 633.674 116.494 631.697 114.74C629.037 119.845 626.504 125.487 624.287 130.813C617.711 146.608 609.899 162.116 603.391 177.905Z"/><path transform="scale(1.57173 1.57246)" d="M259.306 72.2607C264.431 71.8219 286.761 70.9735 287.961 74.0603C289.514 78.054 289.002 109.969 289.003 115.403L288.999 182.088L288.977 229.033C288.973 236.398 289.058 244.137 288.866 251.523C288.822 253.212 287.552 254.683 286.463 255.933C280.239 256.136 263.46 257.059 258.53 254.755C256.274 252.197 257.015 221.307 257.013 216.559L257.006 156.931L257.02 104.619C257.023 98.2361 255.804 76.3056 259.306 72.2607Z"/></svg>