<?xml version="1.0" encoding="UTF-8"?>
<!DOCTYPE svg PUBLIC "-//W3C//DTD SVG 1.1//EN" "http://www.w3.org/Graphics/SVG/1.1/DTD/svg11.dtd">
<svg xmlns="http://www.w3.org/2000/svg" version="1.1" width="165px" height="165px" style="shape-rendering:geometricPrecision; text-rendering:geometricPrecision; image-rendering:optimizeQuality; fill-rule:evenodd; clip-rule:evenodd" xmlns:xlink="http://www.w3.org/1999/xlink">
<g><path style="opacity:1" fill="#010101" d="M 71.5,13.5 C 106.621,10.4685 132.121,24.4685 148,55.5C 160.52,91.2535 152.02,120.753 122.5,144C 100.509,156.988 77.5085,158.988 53.5,150C 20.4665,132.766 6.96651,105.599 13,68.5C 21.7452,38.5844 41.2452,20.2511 71.5,13.5 Z M 75.5,23.5 C 105.195,22.252 126.362,34.9187 139,61.5C 148.825,92.0198 140.992,116.853 115.5,136C 86.7424,151.446 60.5757,147.946 37,125.5C 15.3419,96.0445 16.5086,67.5445 40.5,40C 50.7068,31.228 62.3735,25.728 75.5,23.5 Z"/></g>
<g><path style="opacity:0.933" fill="#010101" d="M 74.5,47.5 C 86.0917,45.2002 95.925,48.2002 104,56.5C 107.628,62.1908 108.295,68.1908 106,74.5C 100.643,80.8548 94.9768,86.8548 89,92.5C 88.5034,94.8098 88.3367,97.1432 88.5,99.5C 84.1667,99.5 79.8333,99.5 75.5,99.5C 75.0631,94.5884 75.8964,89.9217 78,85.5C 82.9145,80.5171 87.9145,75.5171 93,70.5C 94.27,62.7574 90.9367,58.4241 83,57.5C 77.0078,57.9957 72.8411,60.9957 70.5,66.5C 66.2846,67.7977 62.1179,67.7977 58,66.5C 57.6121,63.3154 58.2787,60.3154 60,57.5C 63.6886,52.2804 68.5219,48.9471 74.5,47.5 Z"/></g>
<g><path style="opacity:0.916" fill="#000000" d="M 75.5,104.5 C 79.8333,104.5 84.1667,104.5 88.5,104.5C 88.5,108.833 88.5,113.167 88.5,117.5C 84.1667,117.5 79.8333,117.5 75.5,117.5C 75.5,113.167 75.5,108.833 75.5,104.5 Z"/></g>
</svg>
