<?xml version="1.0" encoding="UTF-8"?>
<svg id="Layer_1" xmlns="http://www.w3.org/2000/svg" version="1.1" viewBox="0 0 452.8 566">
  <!-- Generator: Adobe Illustrator 30.4.0, SVG Export Plug-In . SVG Version: 2.1.4 Build 226)  -->
  <defs>
    <style>
      .st0 {
        fill: #fff;
      }
    </style>
  </defs>
  <path class="st0" d="M223.55,566H0v-238.91c1.69,20.13,6.68,39.69,14.05,59.21,20.61,54.58,59.94,95.43,107.9,127.63,31.9,21.42,66.08,38.56,101.6,52.08Z"/>
  <path class="st0" d="M452.8,329.93v236.07h-222.27c37.25-14.2,72.69-32.42,105.76-55.19,24.58-16.92,46.72-36.55,65.68-59.59,27.66-33.61,45.66-74.28,50.17-117.57l.67-3.71Z"/>
  <polygon class="st0" points="0 .71 0 0 452.8 0 452.8 .71 0 .71"/>
  <g>
    <path d="M452.8.71v329.22s-.66,3.71-.66,3.71c-4.51,43.29-22.51,83.96-50.17,117.57-18.96,23.04-41.1,42.67-65.68,59.59-33.07,22.77-68.5,40.99-105.76,55.19h-6.98c-35.52-13.52-69.7-30.66-101.6-52.08-47.96-32.2-87.3-73.05-107.9-127.63-7.37-19.51-12.36-39.08-14.05-59.21V.71s452.8,0,452.8,0ZM227,551.75c32.32-12.75,62.19-27.63,90.57-46.06,18.03-11.66,34.26-24.52,49.83-39.2,14.95-14.46,28.08-29.97,39.22-47.56,20.18-31.91,31.45-68.21,32.48-106.12l-.05-298.45H14.25s.08,301.96.08,301.96c1.6,22.08,5.12,43.2,13.38,63.48,11.48,31.5,30.56,58.78,54.05,82.55,41.1,40.17,91.96,68.2,145.23,89.41Z"/>
    <path class="st0" d="M227,551.75c-53.27-21.22-104.13-49.24-145.23-89.41-23.49-23.77-42.57-51.05-54.05-82.55-8.26-20.28-11.78-41.4-13.38-63.48l-.08-301.96h424.79s.05,298.46.05,298.46c-1.03,37.92-12.29,74.21-32.48,106.12-11.14,17.59-24.27,33.1-39.22,47.56-15.57,14.69-31.8,27.55-49.83,39.2-28.38,18.44-58.25,33.32-90.57,46.06ZM227.08,538.75l22.43-10.19c21.68-9.8,42.17-20.85,62.25-33.73,39.3-25.92,73.75-58.94,95.15-101.26,12.37-25,18.69-52.03,19.81-80.07l-.03-286.76-400.36-.03.02,285.28,3.19,29.57c3.54,18.77,9.03,36.46,17.78,53.43,9.94,19.27,22.03,36.29,36.93,52.04,16.35,17.29,34.2,32.35,54.14,45.41,13.73,8.99,26.96,17.49,41.83,24.43l46.85,21.88Z"/>
    <path d="M227.08,538.75l-46.85-21.88c-14.87-6.94-28.11-15.44-41.83-24.43-19.94-13.06-37.79-28.13-54.14-45.41-14.9-15.75-27-32.77-36.93-52.04-8.75-16.97-14.24-34.66-17.78-53.43l-3.19-29.57-.02-285.28,400.36.03.03,286.76c-1.13,28.05-7.45,55.08-19.81,80.07-21.4,42.32-55.85,75.35-95.15,101.26-20.09,12.88-40.57,23.94-62.25,33.73l-22.43,10.19ZM337.27,464.83c31.95-26.64,54.75-55.42,69.83-94.49,6.2-18.49,9.73-37.19,10.7-56.86l-.11-277.69H35.31s0,274.91,0,274.91c1.14,43.78,17.24,85.25,45.2,118.78,19.51,23.42,42.78,43.09,68.46,59.5,13.27,8.28,26.26,15.42,40.06,22.63l37.83,17.22c39.22-16.43,78-36.64,110.42-64Z"/>
    <path class="st0" d="M337.27,464.83c-32.42,27.36-71.2,47.56-110.42,64l-37.83-17.22c-13.8-7.21-26.79-14.35-40.06-22.63-25.68-16.41-48.95-36.08-68.46-59.5-27.96-33.53-44.06-75-45.2-118.78V35.79s382.39,0,382.39,0l.11,277.69c-.97,19.67-4.51,38.36-10.7,56.86-15.07,39.07-37.88,67.85-69.83,94.49ZM225.62,123.08c9.93,9.31,16.43,21.27,19.39,34.53l3.89,17.48-89.9.12.05,5.62c11.2,1.45,21.13,3.83,26.73,13.45l38.04,21.09.11-23.62,75.73.07c23.56,1.01,33.91,17.92,35.99,40.47l9.18.36c-.21-12.58.02-24.16-1.43-36.38-.87-7.36-4.62-14.26-11.2-17.49-5.18-2.54-10.79-2.98-16.49-3.78l-29.49.08-27.01-.05-.89-46.94c-.24-12.67-19.33-23.34-31.52-28.34-34.47-14.16-81.84-13.56-110.32,12.31-18.7,16.98-22.9,47.12-14.81,70.81,5.64,16.52,18.99,26.96,33.53,36.26,12.72,8.14,25.41,15.21,38.74,22.44,14.11,7.66,27.66,15.38,40.48,24.87,9.14,6.77,15.51,15.69,18.36,26.51,1.27,7.39,1.34,14.51.78,22.03-.87,11.05-1.54,21.49-1.42,33.52,19.91-8.59,33.28-26.96,35.63-48.68l52.44.05-.12-16.16h-51.78c-2.12-31.41-20.28-44.88-45.88-59.36l-56.46-31.63c-8.4-4.7-15.83-10.01-22.74-16.34-7.93-7.27-11.84-16.36-12.18-27.05s2.7-20.09,10.07-27.72c6.62-6.85,15.08-11.32,24.7-12.85,20.79-3.31,44.27-.28,59.85,14.32ZM188.06,416.01l130.34-.22c9.84-.02,17.92-5.31,22.87-13.03,4.21-6.56,7.43-13.24,9.3-20.73l5.7-22.94-9.37-1.5c-2.73,7.87-5.77,14.61-10.32,21.23-9.18,13.22-23.23,21.25-39.81,21.32l-72.82.3.03-101.73c0-18.8-20.11-30.59-35.96-38.63v81.83c-10.82.31-21.25.26-31.36-2.72-16.96-5-30.39-15.83-38.22-31.55-6.07-11.27-8.94-23.11-10.83-35.93l-10.57.21-.12,41.42c-.04,13.75,7.73,20.69,18.87,28.27,13.99,8.39,29,13.66,45.21,15.99,9.08,1.08,17.76,1.55,27.01,1.6l.04,56.82Z"/>
    <g>
      <path d="M225.62,123.08c-15.58-14.61-39.06-17.63-59.85-14.32-9.62,1.53-18.09,6-24.7,12.85-7.37,7.63-10.4,17.24-10.07,27.72s4.25,19.79,12.18,27.05c6.91,6.33,14.35,11.64,22.74,16.34l56.46,31.63c25.6,14.48,43.76,27.95,45.88,59.35h51.78s.12,16.17.12,16.17l-52.44-.05c-2.35,21.72-15.72,40.09-35.63,48.68-.12-12.03.55-22.47,1.42-33.52.57-7.52.49-14.63-.78-22.03-2.84-10.82-9.21-19.74-18.36-26.51-12.82-9.49-26.37-17.21-40.48-24.87-13.32-7.23-26.02-14.3-38.74-22.44-14.54-9.3-27.89-19.74-33.53-36.26-8.08-23.69-3.89-53.83,14.81-70.81,28.48-25.86,75.85-26.46,110.32-12.31,12.19,5.01,31.28,15.68,31.52,28.34l.89,46.94,27.01.05,29.49-.08c5.7.8,11.31,1.24,16.49,3.78,6.58,3.23,10.33,10.13,11.2,17.49,1.45,12.22,1.22,23.8,1.43,36.38l-9.18-.36c-2.08-22.55-12.43-39.46-35.99-40.47l-75.73-.07-.11,23.62-38.04-21.09c-5.6-9.62-15.53-12-26.73-13.45l-.05-5.62,89.9-.12-3.89-17.48c-2.95-13.26-9.45-25.22-19.39-34.53Z"/>
      <path d="M188.06,416.01l-.04-56.82c-9.25-.05-17.94-.52-27.01-1.6-16.22-2.33-31.23-7.59-45.21-15.99-11.15-7.58-18.92-14.52-18.87-28.27l.12-41.42,10.57-.21c1.89,12.82,4.75,24.66,10.83,35.93,7.83,15.72,21.25,26.55,38.22,31.55,10.11,2.98,20.54,3.03,31.36,2.72v-81.83c15.86,8.04,35.97,19.83,35.97,38.63l-.03,101.73,72.82-.3c16.58-.07,30.63-8.1,39.81-21.32,4.55-6.62,7.59-13.36,10.32-21.23l9.37,1.5-5.7,22.94c-1.86,7.49-5.09,14.17-9.3,20.73-4.95,7.72-13.03,13.01-22.87,13.03l-130.34.22Z"/>
    </g>
  </g>
</svg>